<svg xmlns="http://www.w3.org/2000/svg" xmlns:xlink="http://www.w3.org/1999/xlink" width="500" zoomAndPan="magnify" viewBox="0 0 375 374.999991" height="500" preserveAspectRatio="xMidYMid meet" version="1.0"><defs><filter x="0%" y="0%" width="100%" height="100%" id="ac2f126d96"><feColorMatrix values="0 0 0 0 1 0 0 0 0 1 0 0 0 0 1 0 0 0 1 0" color-interpolation-filters="sRGB"/></filter><g/><mask id="0d76ace514"><g filter="url(#ac2f126d96)"><rect x="-37.5" width="450" fill="#000000" y="-37.499999" height="449.999989" fill-opacity="0.4"/></g></mask><clipPath id="a0812a5bf5"><path d="M 1 2.699219 L 292 2.699219 L 292 228.449219 L 1 228.449219 Z M 1 2.699219 " clip-rule="nonzero"/></clipPath><clipPath id="c45d5d8bc8"><rect x="0" width="294" y="0" height="229"/></clipPath><clipPath id="e3171b5b53"><path d="M 71 76 L 243 76 L 243 343 L 71 343 Z M 71 76 " clip-rule="nonzero"/></clipPath><clipPath id="898a6d7249"><path d="M 30.949219 153.402344 L 171.304688 21.292969 L 353.792969 215.164062 L 213.441406 347.277344 Z M 30.949219 153.402344 " clip-rule="nonzero"/></clipPath><clipPath id="5bddec7039"><path d="M 30.949219 153.402344 L 171.304688 21.292969 L 353.792969 215.164062 L 213.441406 347.277344 Z M 30.949219 153.402344 " clip-rule="nonzero"/></clipPath></defs><g mask="url(#0d76ace514)"><g transform="matrix(1, 0, 0, 1, 46, 95)"><g clip-path="url(#c45d5d8bc8)"><g clip-path="url(#a0812a5bf5)"><path fill="#bc79ff" d="M 59.496094 209.695312 L 58.746094 209.695312 L 59.246094 209.695312 C 59.496094 209.695312 59.746094 209.695312 60.25 209.945312 C 60 209.695312 59.746094 209.695312 59.496094 209.695312 M 137.015625 2.652344 C 138.265625 2.652344 139.765625 2.902344 141.265625 2.902344 L 141.515625 2.902344 C 143.265625 3.152344 144.765625 3.402344 146.265625 3.902344 C 149.515625 4.902344 152.515625 6.402344 155.269531 8.152344 C 155.769531 8.652344 156.519531 8.902344 157.019531 9.402344 L 157.519531 9.902344 C 158.019531 10.402344 158.519531 10.902344 159.019531 11.152344 C 159.519531 11.652344 160.019531 12.152344 160.519531 12.902344 C 161.269531 13.652344 161.769531 14.402344 162.269531 15.152344 L 162.269531 15.402344 C 163.269531 16.65625 164.269531 17.90625 165.019531 18.90625 L 165.519531 19.40625 C 166.269531 20.40625 167.019531 21.40625 167.769531 22.65625 C 168.519531 24.15625 169.269531 25.40625 169.769531 26.65625 C 170.269531 27.90625 171.019531 29.15625 171.519531 30.65625 C 172.019531 31.90625 172.773438 33.15625 173.273438 34.40625 L 173.523438 34.910156 C 174.023438 36.160156 174.523438 37.410156 175.273438 38.660156 C 176.273438 40.910156 177.273438 43.410156 178.023438 46.160156 C 178.773438 48.160156 179.523438 50.660156 180.523438 53.410156 C 181.023438 54.664062 181.773438 56.164062 182.523438 57.664062 C 183.273438 59.414062 184.023438 61.164062 184.523438 62.414062 L 184.523438 62.664062 C 185.023438 64.164062 185.773438 65.664062 186.273438 66.914062 L 186.773438 68.164062 C 187.273438 69.414062 187.773438 70.164062 188.273438 70.914062 C 188.773438 70.664062 189.523438 70.414062 190.273438 70.414062 C 191.523438 69.914062 192.777344 69.664062 194.027344 69.164062 C 196.027344 68.414062 198.277344 67.664062 200.777344 66.664062 C 203.027344 65.664062 205.527344 64.664062 208.277344 63.164062 C 209.027344 62.914062 209.777344 62.414062 210.277344 62.164062 L 210.53125 62.164062 C 212.03125 61.414062 214.03125 60.414062 216.03125 59.664062 C 219.03125 58.414062 222.28125 56.914062 225.53125 55.664062 C 228.78125 54.414062 231.535156 53.410156 234.035156 52.910156 C 237.785156 51.910156 241.285156 51.410156 244.535156 51.410156 C 246.035156 51.410156 247.535156 51.660156 249.039062 51.660156 L 249.289062 51.660156 C 250.289062 51.910156 251.289062 51.910156 252.289062 52.160156 C 253.039062 52.410156 253.789062 52.410156 254.789062 52.660156 C 257.289062 53.160156 259.789062 54.164062 262.289062 55.414062 C 264.289062 56.414062 266.539062 57.914062 269.042969 59.914062 C 270.292969 60.914062 271.292969 61.914062 272.292969 62.664062 C 274.792969 64.914062 276.792969 67.164062 278.792969 69.414062 C 281.042969 71.914062 282.792969 74.667969 284.042969 77.417969 C 285.292969 79.917969 286.546875 82.917969 288.046875 86.417969 C 288.546875 87.667969 289.046875 89.167969 289.546875 90.667969 C 289.796875 91.167969 289.796875 91.417969 290.046875 91.921875 L 290.296875 92.671875 C 290.546875 93.421875 290.796875 94.171875 290.796875 94.671875 L 290.796875 95.671875 C 290.796875 96.171875 291.046875 96.671875 291.046875 96.921875 L 291.046875 97.921875 C 291.046875 98.671875 291.296875 99.671875 291.296875 100.671875 C 291.546875 102.671875 291.296875 104.921875 290.796875 107.421875 C 290.796875 108.171875 290.546875 108.921875 290.046875 109.921875 C 288.796875 110.925781 288.546875 111.925781 288.046875 112.925781 C 287.296875 114.175781 286.296875 115.675781 285.292969 116.925781 C 284.792969 117.675781 284.042969 118.675781 283.292969 119.425781 L 283.292969 119.675781 L 282.542969 120.675781 C 280.792969 122.925781 278.792969 125.675781 276.542969 128.175781 C 272.042969 132.929688 267.042969 136.679688 262.289062 140.429688 C 261.039062 141.179688 260.039062 141.929688 259.039062 142.679688 C 257.539062 143.679688 256.539062 144.179688 255.539062 144.679688 L 255.039062 144.929688 C 254.539062 145.179688 253.789062 145.429688 253.289062 145.679688 L 252.789062 145.929688 L 252.539062 145.929688 C 252.039062 146.179688 251.539062 146.179688 251.289062 146.429688 L 251.039062 146.429688 C 249.789062 146.679688 248.789062 147.179688 247.535156 147.429688 C 244.285156 148.183594 242.035156 148.933594 239.535156 149.183594 C 238.785156 149.433594 238.035156 149.433594 237.285156 149.683594 L 237.035156 149.683594 L 235.785156 149.933594 C 236.035156 149.933594 236.035156 150.183594 236.285156 150.183594 C 236.785156 150.683594 237.285156 151.183594 237.535156 151.433594 C 238.035156 151.933594 238.285156 152.433594 238.535156 153.183594 C 239.535156 154.183594 240.035156 155.183594 240.535156 156.183594 C 241.035156 157.183594 242.035156 158.683594 242.535156 160.183594 C 243.035156 161.433594 243.535156 162.933594 244.035156 164.683594 C 245.785156 170.6875 246.535156 176.6875 246.035156 182.4375 C 245.785156 185.691406 245.285156 188.941406 244.785156 192.191406 L 244.785156 192.441406 C 244.785156 193.191406 244.535156 193.941406 244.285156 194.691406 C 244.035156 195.941406 243.785156 196.941406 243.535156 198.191406 C 243.285156 198.941406 243.035156 200.441406 242.535156 201.691406 C 242.035156 203.191406 241.285156 204.695312 240.535156 205.945312 C 240.035156 206.945312 239.035156 208.195312 238.535156 208.945312 C 237.785156 209.945312 236.785156 211.195312 235.785156 212.445312 C 234.285156 214.195312 232.535156 215.695312 230.035156 217.445312 C 225.03125 221.445312 220.53125 223.949219 216.03125 225.699219 C 214.78125 226.199219 213.78125 226.449219 212.28125 226.699219 C 211.03125 226.949219 209.777344 226.949219 208.527344 227.199219 L 207.777344 227.199219 C 206.027344 227.449219 204.277344 227.449219 202.527344 227.699219 L 200.527344 228.199219 C 199.277344 228.199219 198.027344 228.449219 196.777344 228.449219 C 196.527344 228.449219 196.027344 228.449219 195.777344 228.449219 C 195.027344 228.449219 194.277344 228.449219 193.027344 228.449219 C 190.023438 228.199219 187.273438 227.699219 184.523438 226.949219 C 182.523438 226.449219 180.023438 225.699219 177.773438 224.949219 L 175.523438 223.949219 L 175.023438 223.699219 L 174.773438 223.699219 C 173.523438 223.199219 172.019531 222.695312 170.769531 222.445312 C 170.019531 222.195312 169.519531 221.945312 169.019531 221.695312 L 168.769531 221.695312 L 168.519531 221.445312 L 168.269531 221.445312 C 167.769531 221.195312 167.269531 220.945312 166.769531 220.695312 C 165.519531 219.945312 164.269531 219.195312 162.769531 217.945312 C 161.019531 216.445312 159.019531 214.695312 157.269531 212.695312 C 156.769531 212.195312 156.019531 211.445312 155.519531 210.695312 C 155.269531 210.445312 155.019531 210.195312 155.019531 209.945312 C 154.269531 208.945312 153.265625 207.695312 152.515625 206.195312 L 151.515625 204.695312 C 150.515625 202.941406 149.515625 201.441406 148.515625 199.941406 C 147.765625 198.441406 147.015625 197.191406 146.515625 196.191406 C 145.765625 194.691406 145.265625 193.191406 144.765625 191.691406 C 144.265625 190.441406 144.015625 189.441406 143.765625 188.441406 C 143.765625 187.941406 143.515625 187.691406 143.515625 186.941406 C 143.265625 187.191406 143.015625 187.441406 142.765625 187.691406 C 141.515625 188.941406 140.265625 190.191406 139.015625 191.191406 L 138.765625 191.441406 C 136.765625 193.441406 134.511719 195.441406 132.261719 197.191406 C 130.261719 198.941406 128.011719 200.441406 125.761719 201.691406 C 123.511719 202.941406 121.261719 204.445312 118.761719 205.445312 C 116.261719 206.445312 113.757812 207.445312 111.507812 208.195312 C 111.257812 208.195312 111.257812 208.445312 111.007812 208.445312 C 106.257812 211.195312 101.007812 213.445312 95.503906 215.195312 C 90.003906 216.945312 84.253906 217.695312 79.003906 218.195312 C 76 218.445312 72.75 218.695312 70 218.695312 C 67.75 218.695312 65.75 218.695312 63.5 218.445312 C 57.996094 217.945312 52.246094 216.695312 46.996094 214.695312 C 44.496094 213.695312 41.746094 212.445312 39.242188 210.945312 C 37.992188 210.195312 36.742188 209.445312 35.992188 208.695312 C 34.742188 207.695312 33.242188 206.695312 31.992188 205.445312 C 30.992188 204.445312 29.992188 203.191406 29.242188 201.941406 C 28.742188 200.941406 27.992188 199.941406 27.492188 198.691406 L 27.242188 198.191406 C 26.992188 197.441406 26.492188 196.691406 26.492188 195.941406 C 26.242188 194.941406 26.242188 193.941406 25.992188 192.941406 C 25.742188 191.691406 25.742188 190.441406 25.742188 189.441406 L 25.742188 189.191406 C 25.742188 186.441406 25.992188 183.9375 25.992188 181.4375 L 25.992188 180.6875 C 26.242188 178.1875 26.492188 175.6875 26.992188 173.4375 C 27.742188 170.6875 29.242188 167.9375 30.742188 165.683594 C 31.992188 163.433594 33.742188 161.183594 35.742188 158.933594 C 36.242188 158.433594 36.992188 157.683594 37.992188 156.933594 L 37.742188 156.933594 C 37.242188 156.933594 36.742188 156.683594 36.242188 156.683594 C 35.492188 156.433594 34.742188 156.183594 34.242188 156.183594 C 33.992188 156.183594 33.492188 155.933594 33.242188 155.683594 L 32.742188 155.683594 L 32.242188 155.433594 C 31.242188 154.933594 30.242188 154.683594 29.242188 154.433594 L 28.992188 154.433594 L 28.242188 154.183594 C 26.992188 153.683594 25.492188 153.183594 24.242188 152.683594 C 22.492188 151.933594 20.738281 151.183594 19.488281 150.433594 C 18.238281 149.683594 16.988281 148.933594 15.488281 147.933594 C 14.738281 147.429688 13.988281 146.929688 13.238281 146.179688 C 12.738281 145.679688 11.988281 145.179688 11.488281 144.679688 C 9.988281 142.929688 8.488281 141.179688 7.488281 139.179688 C 6.988281 138.179688 6.488281 137.179688 5.988281 136.429688 C 5.488281 135.429688 4.988281 134.179688 4.488281 132.929688 C 3.738281 131.429688 3.238281 129.929688 2.988281 128.675781 C 2.484375 127.425781 2.234375 126.175781 1.984375 124.675781 C 1.734375 122.675781 1.484375 120.925781 1.484375 119.175781 C 1.484375 117.675781 1.484375 116.175781 1.984375 114.175781 C 2.234375 113.425781 2.234375 112.675781 2.734375 111.675781 C 3.488281 109.421875 4.238281 107.421875 4.988281 105.421875 L 5.238281 105.171875 C 5.488281 104.421875 5.738281 103.921875 5.988281 103.171875 L 6.738281 101.171875 C 7.488281 99.171875 8.488281 96.671875 9.488281 94.171875 C 9.988281 92.921875 10.738281 91.421875 11.488281 90.167969 C 12.238281 88.667969 13.238281 87.417969 13.988281 86.167969 C 15.988281 83.167969 17.738281 80.667969 19.738281 78.417969 C 20.738281 77.167969 21.992188 75.917969 22.742188 74.917969 C 23.742188 73.917969 24.992188 72.917969 26.242188 71.914062 C 27.742188 70.914062 28.992188 69.914062 30.492188 68.914062 C 31.492188 68.164062 32.742188 67.664062 34.242188 66.664062 C 35.992188 65.664062 37.992188 64.914062 39.242188 64.414062 C 40.242188 63.914062 41.746094 63.414062 42.996094 62.914062 C 44.496094 62.414062 45.996094 62.164062 47.496094 61.664062 C 49.996094 61.164062 51.496094 60.914062 52.996094 60.914062 L 53.996094 60.914062 C 54.996094 60.914062 56.246094 60.664062 57.496094 60.664062 L 57.746094 60.664062 C 59.496094 60.664062 60.75 60.664062 62.25 60.914062 C 65.25 61.164062 68.5 61.664062 72 62.414062 C 73.5 62.664062 75.25 63.164062 76.75 63.664062 C 78.25 64.164062 80.003906 64.664062 82.253906 65.664062 C 83.753906 66.414062 85.253906 67.164062 86.753906 67.664062 L 87.003906 67.664062 C 88.253906 68.164062 89.503906 68.914062 90.753906 69.414062 C 92.003906 69.914062 93.253906 70.414062 94.503906 70.664062 L 94.503906 69.664062 C 94.503906 68.664062 94.753906 67.664062 94.753906 66.414062 C 94.753906 64.664062 95.003906 63.164062 95.253906 61.414062 C 95.503906 59.914062 95.753906 58.414062 96.003906 56.914062 C 96.253906 55.664062 96.503906 54.414062 96.753906 53.410156 L 97.003906 52.660156 C 97.757812 49.910156 98.507812 47.160156 99.507812 43.660156 C 100.257812 40.660156 101.257812 37.910156 102.257812 35.160156 L 103.007812 32.90625 L 103.007812 32.65625 C 103.757812 30.65625 104.257812 28.65625 105.007812 26.90625 C 105.757812 24.65625 106.757812 22.40625 108.007812 19.90625 C 109.007812 17.90625 110.257812 15.902344 111.757812 13.902344 L 112.007812 13.652344 C 113.507812 11.652344 115.007812 10.152344 117.011719 8.652344 C 118.011719 7.902344 119.011719 7.152344 119.761719 6.652344 C 120.511719 6.152344 121.261719 5.902344 122.261719 5.402344 C 123.511719 4.902344 125.011719 4.402344 126.511719 3.902344 C 127.761719 3.402344 129.261719 3.402344 130.261719 3.152344 L 130.511719 3.152344 C 132.011719 2.902344 133.261719 2.902344 134.761719 2.902344 C 136.015625 2.652344 136.515625 2.652344 137.015625 2.652344 " fill-opacity="1" fill-rule="nonzero"/></g></g></g></g><g clip-path="url(#e3171b5b53)"><g clip-path="url(#898a6d7249)"><g clip-path="url(#5bddec7039)"><path fill="#73187f" d="M 222.542969 76.480469 C 221.933594 76.089844 221.433594 76.320312 220.921875 76.800781 C 220.410156 77.28125 219.902344 77.761719 219.390625 78.242188 C 218.625 78.960938 217.988281 79.5625 217.222656 80.28125 C 215.8125 81.851562 214.53125 83.300781 213.121094 84.867188 C 212.867188 85.105469 212.601562 85.59375 212.347656 85.835938 C 211.199219 86.914062 210.046875 88.242188 209.015625 89.449219 C 208.371094 90.296875 207.605469 91.019531 206.960938 91.867188 C 206.445312 92.59375 205.679688 93.3125 205.160156 94.042969 C 202.589844 97.183594 199.894531 100.199219 197.195312 103.464844 C 195.777344 105.28125 194.359375 107.09375 193.191406 108.917969 C 192.027344 110.492188 190.863281 112.070312 189.820312 113.773438 C 188.78125 115.476562 187.984375 117.183594 187.0625 119.015625 C 186.140625 120.847656 185.214844 122.675781 184.292969 124.507812 C 183.761719 125.730469 183.109375 126.824219 182.703125 127.929688 C 182.179688 128.902344 181.902344 129.886719 181.625 130.867188 C 180.949219 132.707031 180.394531 134.671875 179.839844 136.636719 C 179.433594 137.738281 179.148438 138.96875 178.871094 139.953125 C 178.203125 141.542969 177.65625 143.261719 177.109375 144.980469 C 175.75 148.902344 174.265625 152.945312 172.910156 156.871094 C 171.949219 159.9375 170.988281 163.007812 170.148438 166.203125 C 169.503906 162.960938 168.976562 159.847656 168.078125 156.847656 C 167.402344 154.597656 166.597656 152.464844 165.796875 150.335938 C 165.113281 148.332031 164.304688 146.449219 163.492188 144.566406 C 161.871094 140.800781 160.5 137.042969 158.75 133.398438 C 157.941406 131.515625 156.882812 129.625 155.699219 127.855469 C 154.632812 126.210938 153.566406 124.570312 152.382812 122.796875 C 151.078125 120.902344 149.644531 119.121094 148.339844 117.226562 C 147.144531 115.703125 146.074219 114.308594 144.878906 112.785156 C 144.527344 112.152344 144.046875 111.644531 143.695312 111.015625 C 141.445312 107.601562 139.074219 104.058594 136.449219 100.757812 C 135.132812 99.109375 133.8125 97.707031 132.375 96.175781 C 131.652344 95.410156 130.804688 94.765625 129.957031 94.121094 C 129.230469 93.601562 128.261719 92.832031 127.394531 92.929688 C 126.898438 92.914062 126.273438 93.019531 125.765625 93.5 C 125.382812 93.859375 125.246094 94.226562 124.984375 94.714844 C 124.585938 95.570312 124.558594 96.558594 124.527344 97.550781 C 124.496094 98.539062 124.59375 99.410156 124.566406 100.398438 C 124.746094 102.636719 125.054688 104.75 125.488281 106.746094 C 125.921875 108.742188 126.109375 110.730469 126.671875 112.605469 C 126.890625 113.601562 127.234375 114.480469 127.453125 115.476562 C 127.792969 116.601562 128.25 117.855469 128.714844 118.863281 C 129.398438 120.863281 130.207031 122.746094 131.019531 124.628906 C 131.828125 126.511719 132.765625 128.277344 133.457031 130.03125 C 134.265625 131.914062 135.078125 133.796875 136.132812 135.6875 C 137.070312 137.449219 137.882812 139.332031 138.820312 141.09375 C 139.757812 142.859375 140.449219 144.613281 141.386719 146.375 C 142.324219 148.140625 143.261719 149.902344 144.199219 151.664062 C 145.136719 153.429688 146.074219 155.191406 147.132812 157.082031 C 148.070312 158.84375 149.007812 160.605469 150.195312 162.378906 C 151.257812 164.019531 152.195312 165.78125 153.261719 167.425781 C 154.320312 169.316406 155.503906 171.085938 156.820312 172.734375 C 158.011719 174.257812 159.203125 175.78125 160.398438 177.304688 C 161.589844 178.828125 162.910156 180.230469 163.984375 181.625 C 165.046875 183.269531 165.867188 184.902344 166.683594 186.539062 C 166.355469 189.253906 165.894531 192.089844 165.4375 194.925781 C 165.132812 196.898438 164.824219 198.871094 164.515625 200.84375 C 164.074219 203.183594 163.878906 205.53125 163.683594 207.882812 C 163.496094 209.980469 163.4375 211.960938 163.25 214.0625 C 163.183594 216.289062 163.242188 218.398438 163.421875 220.632812 C 163.476562 222.988281 163.773438 225.351562 163.957031 227.585938 C 164.144531 229.574219 164.449219 231.691406 164.757812 233.804688 C 164.863281 234.429688 164.839844 235.171875 164.945312 235.792969 C 164.152344 233.417969 163.355469 231.039062 162.558594 228.660156 C 161.539062 225.53125 160.519531 222.402344 159.371094 219.394531 C 158.367188 215.773438 157.234375 212.269531 156.101562 208.765625 C 154.628906 204.136719 152.664062 199.496094 150.816406 194.980469 C 148.84375 190.582031 146.871094 186.1875 144.777344 181.664062 C 143.847656 179.652344 142.796875 177.515625 141.621094 175.496094 C 141.035156 174.363281 140.324219 173.351562 139.609375 172.339844 C 138.777344 171.199219 138.0625 170.1875 137.230469 169.046875 C 135.796875 167.269531 134.367188 165.492188 132.933594 163.714844 C 131.378906 161.808594 129.828125 159.902344 128.273438 157.996094 C 125.40625 154.441406 122.167969 151 118.917969 147.804688 C 117.238281 146.019531 115.679688 144.359375 113.871094 142.695312 C 112.0625 141.03125 110.382812 139.246094 108.445312 137.699219 C 106.511719 136.152344 104.574219 134.609375 102.511719 133.183594 C 100.449219 131.757812 98.511719 130.214844 96.699219 128.796875 C 94.882812 127.378906 92.941406 126.078125 91.125 124.664062 C 90.394531 124.144531 89.667969 123.628906 88.941406 123.109375 C 88.460938 122.597656 88.101562 122.21875 87.492188 121.828125 C 86.40625 120.925781 85.316406 120.027344 84.351562 119.253906 C 82.65625 117.964844 80.839844 116.546875 79.007812 115.625 C 78.273438 115.351562 77.664062 114.964844 76.929688 114.691406 C 76.5625 114.558594 76.195312 114.421875 75.828125 114.289062 C 75.210938 114.144531 74.230469 113.867188 73.601562 114.222656 C 73.113281 113.957031 72.609375 114.191406 72.226562 114.550781 C 71.84375 114.910156 71.453125 115.519531 71.4375 116.015625 C 71.425781 116.507812 71.289062 116.875 71.273438 117.371094 C 71.265625 117.621094 71.257812 117.867188 71.378906 117.996094 C 71.476562 118.863281 71.453125 119.605469 71.550781 120.476562 C 71.859375 122.59375 72.289062 124.835938 72.84375 126.957031 C 73.390625 129.328125 73.691406 131.691406 74.484375 134.070312 C 74.945312 135.324219 75.28125 136.449219 75.492188 137.695312 C 75.828125 138.820312 76.167969 139.945312 76.503906 141.070312 C 77.417969 143.574219 78.335938 146.078125 79.25 148.585938 C 79.25 148.585938 79.371094 148.714844 79.371094 148.714844 C 79.371094 148.714844 79.492188 148.839844 79.492188 148.839844 C 79.601562 149.214844 79.722656 149.34375 79.835938 149.71875 C 80.414062 151.097656 80.863281 152.597656 81.441406 153.980469 C 82.027344 155.113281 82.363281 156.238281 82.949219 157.371094 C 83.535156 158.503906 84.121094 159.636719 84.585938 160.640625 C 85.167969 161.773438 85.636719 162.777344 86.09375 164.03125 C 87.015625 166.289062 88.1875 168.554688 89.355469 170.820312 C 90.527344 173.085938 91.824219 175.230469 93.113281 177.625 C 95.464844 181.90625 98.058594 186.199219 100.65625 190.488281 C 103.371094 194.90625 105.964844 199.199219 108.554688 203.734375 C 109.851562 205.882812 111.03125 207.898438 112.328125 210.042969 C 113.625 212.191406 114.804688 214.207031 116.101562 216.351562 C 118.699219 220.644531 121.546875 224.695312 124.273438 228.863281 C 125.699219 230.890625 127.003906 232.789062 128.429688 234.8125 C 129.972656 236.964844 131.640625 239.246094 133.183594 241.398438 C 134.609375 243.425781 136.28125 245.457031 137.964844 247.242188 C 139.644531 249.027344 141.078125 250.804688 142.757812 252.589844 C 144.308594 254.496094 145.992188 256.28125 147.542969 258.1875 C 148.96875 260.214844 150.53125 261.871094 152.210938 263.65625 C 153.890625 265.441406 155.691406 267.355469 157.371094 269.140625 C 159.050781 270.925781 160.613281 272.582031 162.292969 274.367188 C 163.011719 275.132812 163.613281 275.769531 164.207031 276.65625 C 165.511719 278.554688 167.0625 280.457031 168.496094 282.238281 C 170.050781 284.140625 171.484375 285.917969 173.035156 287.824219 C 173.757812 288.589844 174.347656 289.476562 174.941406 290.359375 C 175.03125 291.476562 175.25 292.476562 175.460938 293.722656 C 175.773438 295.589844 176.585938 297.472656 177.148438 299.347656 C 177.703125 301.46875 178.386719 303.472656 179.195312 305.355469 C 180.9375 309.25 183.179688 312.910156 185.675781 316.332031 C 186.992188 317.980469 188.183594 319.503906 189.496094 321.152344 C 190.9375 322.683594 192.257812 324.085938 193.699219 325.617188 C 195.136719 327.148438 196.457031 328.550781 198.027344 329.960938 C 199.59375 331.371094 201.042969 332.652344 202.738281 333.941406 C 202.738281 333.941406 202.855469 334.070312 202.855469 334.070312 C 202.855469 334.070312 202.976562 334.199219 202.976562 334.199219 C 203.335938 334.582031 203.945312 334.972656 204.425781 335.480469 C 204.785156 335.863281 205.144531 336.246094 205.503906 336.628906 C 206.226562 337.394531 207.195312 338.167969 208.167969 338.691406 C 208.410156 338.945312 208.785156 338.835938 209.160156 338.722656 C 209.527344 338.855469 209.648438 338.984375 210.015625 339.117188 C 211.109375 339.773438 212.078125 340.542969 213.179688 340.949219 C 213.914062 341.21875 214.769531 341.617188 215.503906 341.886719 C 215.871094 342.023438 216.367188 342.035156 216.863281 342.050781 C 217.359375 342.066406 217.980469 341.960938 218.484375 341.730469 C 218.851562 341.863281 219.097656 341.871094 219.472656 341.757812 C 219.847656 341.644531 219.976562 341.527344 220.230469 341.285156 C 220.359375 341.167969 220.488281 341.046875 220.613281 340.925781 C 220.875 340.4375 221.011719 340.070312 220.777344 339.570312 C 220.667969 339.195312 220.546875 339.066406 220.304688 338.8125 C 219.945312 338.429688 219.339844 338.039062 218.976562 337.65625 C 218.738281 337.402344 218.378906 337.019531 218.011719 336.882812 C 217.28125 336.367188 216.554688 335.847656 215.828125 335.332031 C 214.492188 334.421875 213.285156 333.394531 211.828125 332.359375 C 210.140625 330.820312 208.324219 329.40625 206.765625 327.746094 C 204.476562 325.570312 202.195312 323.148438 200.035156 320.851562 C 199.316406 320.089844 198.59375 319.324219 197.875 318.558594 C 197.875 318.558594 197.753906 318.429688 197.882812 318.308594 C 197.761719 318.183594 197.769531 317.933594 197.769531 317.933594 C 197.648438 317.808594 197.53125 317.679688 197.53125 317.679688 C 197.058594 316.921875 196.457031 316.285156 195.984375 315.527344 C 195.984375 315.527344 196.105469 315.65625 196.105469 315.65625 C 195.746094 315.273438 195.511719 314.769531 195.152344 314.386719 C 195.300781 313.523438 195.324219 312.78125 195.59375 312.046875 C 195.746094 311.183594 196.023438 310.199219 196.171875 309.339844 C 196.457031 308.109375 196.742188 306.878906 196.78125 305.640625 C 196.9375 304.53125 197.085938 303.667969 196.996094 302.550781 C 197.027344 301.558594 196.9375 300.441406 196.964844 299.453125 C 196.972656 295.117188 196.980469 290.78125 197.234375 286.449219 C 197.304688 284.222656 197.492188 282.121094 197.429688 280.015625 C 197.617188 277.914062 197.558594 275.804688 197.746094 273.707031 C 198.121094 269.503906 198.375 265.175781 199.125 260.863281 C 199.875 256.550781 200.753906 252.117188 201.382812 247.675781 C 201.570312 245.574219 201.757812 243.472656 202.070312 241.253906 C 202.386719 239.03125 202.574219 236.933594 203.007812 234.839844 C 203.023438 234.34375 203.167969 233.730469 203.183594 233.234375 C 203.472656 231.757812 203.640625 230.398438 203.933594 228.921875 C 204.382812 226.332031 204.703125 223.863281 205.027344 221.398438 C 205.339844 219.175781 205.289062 216.820312 205.230469 214.710938 C 205.136719 213.59375 205.296875 212.484375 205.324219 211.496094 C 205.484375 210.382812 205.519531 209.144531 205.429688 208.027344 C 205.445312 207.535156 205.339844 206.910156 205.109375 206.410156 C 204.996094 206.035156 204.761719 205.53125 204.402344 205.148438 C 204.402344 205.148438 204.402344 205.148438 204.28125 205.019531 C 203.441406 204.128906 202.085938 203.964844 201.078125 204.429688 C 200.449219 204.78125 200.1875 205.269531 199.675781 205.75 C 199.03125 206.597656 198.140625 207.4375 197.492188 208.285156 C 196.722656 209.25 195.949219 210.21875 195.175781 211.1875 C 194.53125 212.035156 193.878906 213.128906 193.234375 213.976562 C 191.9375 215.921875 191.003906 218 189.828125 220.070312 C 188.898438 222.148438 187.839844 224.34375 186.910156 226.421875 C 186.109375 228.382812 185.175781 230.460938 184.496094 232.546875 C 184.089844 233.648438 183.8125 234.628906 183.527344 235.859375 C 183.121094 236.964844 182.964844 238.074219 182.679688 239.304688 C 182.246094 241.398438 181.691406 243.363281 181.253906 245.457031 C 180.25 250.007812 179.613281 254.699219 179.101562 259.265625 C 178.78125 261.734375 178.578125 264.328125 178.375 266.925781 C 178.269531 266.300781 178.164062 265.679688 178.0625 265.058594 C 177.625 263.0625 177.199219 260.820312 176.890625 258.703125 C 176.453125 256.707031 176.265625 254.71875 175.960938 252.605469 C 175.773438 250.617188 175.464844 248.5 175.277344 246.511719 C 175.203125 244.902344 175.007812 243.160156 175.050781 241.675781 C 174.984375 239.816406 175.035156 238.082031 174.96875 236.222656 C 174.902344 234.359375 174.960938 232.378906 174.894531 230.519531 C 174.945312 228.789062 174.75 227.046875 174.683594 225.1875 C 174.621094 223.078125 174.683594 221.097656 174.621094 218.988281 C 174.691406 216.761719 174.628906 214.652344 174.695312 212.425781 C 174.554688 208.953125 174.785156 205.367188 174.890625 201.902344 C 175.265625 201.789062 175.515625 201.796875 175.890625 201.683594 C 177.507812 201.359375 178.890625 200.785156 180.269531 200.207031 C 180.398438 200.085938 180.644531 200.09375 180.773438 199.972656 C 180.773438 199.972656 180.773438 199.972656 180.644531 200.09375 C 182.273438 199.523438 183.78125 198.824219 185.410156 198.253906 C 186.285156 197.910156 186.917969 197.558594 187.675781 197.085938 C 188.429688 196.613281 189.0625 196.257812 189.699219 195.660156 C 191.34375 194.59375 192.863281 193.402344 194.386719 192.207031 C 195.527344 191.375 196.546875 190.414062 197.566406 189.457031 C 197.824219 189.214844 197.949219 189.09375 198.207031 188.855469 C 199.097656 188.015625 200.117188 187.054688 201.011719 186.214844 C 202.925781 184.414062 204.964844 182.492188 207.003906 180.574219 C 209.179688 178.285156 211.355469 175.996094 213.289062 173.453125 C 214.3125 172.492188 215.210938 171.40625 215.984375 170.4375 C 219.066406 166.8125 221.78125 163.054688 224.257812 159.042969 C 225.425781 157.21875 226.355469 155.140625 227.40625 153.191406 C 228.457031 151.238281 229.386719 149.164062 230.4375 147.210938 C 231.367188 145.132812 232.546875 143.0625 233.476562 140.984375 C 234.40625 138.90625 235.335938 136.828125 236.265625 134.75 C 236.796875 133.527344 237.324219 132.554688 237.855469 131.332031 C 238.253906 130.476562 238.652344 129.621094 238.929688 128.636719 C 239.070312 128.023438 239.339844 127.285156 239.484375 126.671875 C 239.894531 125.320312 240.0625 123.964844 240.472656 122.613281 C 240.625 121.75 240.902344 120.769531 240.929688 119.777344 C 241.074219 119.164062 240.96875 118.539062 241.109375 117.925781 C 241.132812 117.183594 241.164062 116.191406 241.1875 115.449219 C 241.464844 114.464844 241.621094 113.355469 241.898438 112.375 C 242.316406 110.777344 242.492188 109.171875 242.414062 107.558594 C 242.332031 106.191406 242.242188 105.074219 241.785156 103.820312 C 241.550781 103.320312 241.566406 102.824219 241.207031 102.441406 C 240.855469 101.8125 240.253906 101.171875 239.648438 100.785156 C 239.28125 100.648438 238.917969 100.265625 238.425781 100.25 C 237.6875 99.980469 236.945312 99.957031 236.316406 100.3125 C 235.566406 100.535156 234.9375 100.890625 234.1875 101.113281 C 232.558594 101.683594 230.5625 102.121094 229.40625 103.449219 C 229.023438 103.808594 228.761719 104.296875 228.621094 104.910156 C 228.238281 105.269531 227.980469 105.511719 227.601562 105.871094 C 225.6875 107.671875 223.648438 109.589844 221.734375 111.390625 C 221.222656 111.871094 220.714844 112.351562 220.203125 112.832031 C 219.191406 113.546875 218.296875 114.386719 217.285156 115.097656 C 215.636719 116.410156 214.097656 118.097656 212.6875 119.667969 C 211.140625 121.601562 209.722656 123.417969 208.179688 125.351562 C 205.71875 128.871094 203.257812 132.390625 200.679688 135.78125 C 200.679688 135.78125 200.550781 135.902344 200.550781 135.902344 C 198.75 138.078125 196.824219 140.371094 195.023438 142.546875 C 193.09375 144.84375 191.175781 146.890625 189.367188 149.316406 C 188.464844 150.402344 187.6875 151.617188 186.90625 152.832031 C 186.125 154.046875 185.464844 155.390625 184.804688 156.734375 C 184.796875 156.980469 184.542969 157.222656 184.535156 157.46875 C 184.28125 157.710938 184.144531 158.078125 183.890625 158.316406 C 182.726562 159.890625 181.691406 161.347656 180.777344 162.929688 C 180.785156 162.683594 180.792969 162.433594 180.929688 162.066406 C 181.917969 158.007812 183.15625 153.957031 184.273438 149.78125 C 185.382812 145.847656 186.371094 141.789062 187.484375 137.859375 C 188.039062 135.894531 188.71875 133.808594 189.394531 131.972656 C 189.941406 130.253906 190.738281 128.542969 191.535156 126.832031 C 192.191406 125.488281 192.859375 123.898438 193.519531 122.554688 C 194.1875 120.964844 194.855469 119.375 195.523438 117.785156 C 196.445312 115.953125 197.242188 114.242188 198.285156 112.542969 C 198.808594 111.566406 199.207031 110.710938 199.722656 109.984375 C 201.023438 108.039062 202.320312 106.097656 203.863281 104.160156 C 205.035156 102.339844 206.324219 100.644531 207.496094 98.820312 C 208.664062 96.996094 209.957031 95.300781 211.246094 93.605469 C 212.410156 92.03125 213.699219 90.335938 214.859375 88.761719 C 216.152344 87.066406 217.441406 85.371094 218.730469 83.671875 C 218.605469 83.792969 218.476562 83.914062 218.476562 83.914062 C 219.632812 82.585938 220.667969 81.128906 221.820312 79.804688 C 221.820312 79.804688 221.820312 79.804688 221.949219 79.683594 C 221.949219 79.683594 222.078125 79.5625 222.078125 79.5625 C 222.078125 79.5625 221.949219 79.683594 221.949219 79.683594 C 222.203125 79.441406 222.46875 78.953125 222.722656 78.714844 C 222.976562 78.476562 223.105469 78.355469 223.238281 77.988281 C 223.128906 77.613281 223.148438 76.871094 222.542969 76.480469 M 183.117188 265.828125 C 183.5 261.382812 184.128906 256.941406 184.757812 252.5 C 184.773438 252.003906 184.917969 251.390625 184.929688 250.894531 C 185.53125 247.441406 186.25 244.121094 187.097656 240.675781 C 187.527344 238.832031 187.945312 237.234375 188.492188 235.515625 C 188.914062 233.917969 189.703125 232.453125 190.242188 230.984375 C 191.703125 227.683594 193.40625 224.636719 194.863281 221.585938 C 195.648438 220.121094 196.566406 218.539062 197.351562 217.074219 C 197.871094 216.347656 198.515625 215.5 199.03125 214.773438 C 199.011719 215.515625 198.988281 216.257812 198.84375 216.875 C 198.769531 219.347656 198.449219 221.816406 197.996094 224.40625 C 197.683594 226.625 197.121094 228.839844 196.804688 231.058594 C 196.363281 233.398438 195.921875 235.738281 195.726562 238.089844 C 195.101562 242.28125 194.847656 246.609375 194.226562 250.804688 C 194.226562 250.804688 194.21875 251.050781 194.21875 251.050781 C 193.777344 253.390625 193.339844 255.484375 192.898438 257.824219 C 192.457031 260.164062 192.132812 262.632812 191.9375 264.980469 C 191.625 267.203125 191.554688 269.429688 191.242188 271.652344 C 191.054688 273.75 190.738281 275.972656 190.671875 278.199219 C 190.605469 280.425781 190.664062 282.535156 190.476562 284.636719 C 190.410156 286.863281 190.222656 288.964844 190.15625 291.191406 C 190.214844 293.300781 190.148438 295.527344 190.078125 297.757812 C 190.019531 299.738281 190.085938 301.597656 189.78125 303.570312 C 189.78125 303.570312 189.773438 303.816406 189.773438 303.816406 C 189.195312 302.4375 188.617188 301.058594 188.039062 299.675781 C 187.582031 298.425781 187.246094 297.296875 186.785156 296.046875 C 185.984375 293.914062 185.429688 291.792969 184.625 289.664062 C 183.941406 287.660156 183.261719 285.65625 182.699219 283.78125 C 182.472656 283.03125 182.375 282.160156 182.03125 281.28125 C 181.925781 280.660156 182.066406 280.046875 181.960938 279.421875 C 181.910156 277.066406 181.976562 274.839844 182.171875 272.492188 C 182.863281 270.160156 182.929688 267.929688 183.117188 265.828125 M 155.996094 232.675781 C 156.792969 235.050781 157.585938 237.429688 158.382812 239.808594 C 159.644531 243.191406 160.777344 246.695312 162.285156 250.085938 C 162.847656 251.960938 163.410156 253.835938 164.09375 255.839844 C 165.007812 258.34375 165.921875 260.851562 166.839844 263.355469 C 167.640625 265.484375 168.445312 267.617188 169.367188 269.875 C 169.578125 271.121094 169.792969 272.117188 170.003906 273.363281 C 170.109375 273.984375 170.222656 274.359375 170.328125 274.984375 C 170.207031 274.855469 170.085938 274.726562 170.09375 274.480469 C 168.550781 272.328125 167.003906 270.175781 165.210938 268.015625 C 163.777344 266.234375 162.21875 264.578125 160.785156 262.800781 C 160.785156 262.800781 160.664062 262.671875 160.664062 262.671875 C 160.664062 262.671875 160.664062 262.671875 160.542969 262.546875 C 160.183594 262.164062 159.953125 261.660156 159.710938 261.40625 C 157.214844 257.984375 154.835938 254.691406 152.210938 251.390625 C 149.101562 247.582031 146.253906 243.53125 143.394531 239.726562 C 140.65625 236.050781 137.917969 232.375 135.058594 228.570312 C 132.921875 225.535156 130.789062 222.25 128.78125 219.089844 C 127.601562 217.074219 126.175781 215.046875 124.871094 213.148438 C 123.574219 211.003906 122.148438 208.976562 120.851562 206.832031 C 118.375 202.667969 115.898438 198.507812 113.421875 194.34375 C 110.945312 190.179688 108.589844 186.144531 106.363281 181.988281 C 104.015625 177.707031 101.660156 173.667969 99.566406 169.144531 C 97.34375 164.742188 95.5 160.226562 93.152344 155.945312 C 92.101562 153.804688 90.804688 151.660156 89.753906 149.523438 C 88.703125 147.382812 87.652344 145.246094 86.847656 143.117188 C 85.925781 140.859375 85.003906 138.601562 84.082031 136.34375 C 83.15625 134.085938 82.355469 131.953125 81.433594 129.695312 C 80.621094 127.8125 79.9375 125.8125 79.007812 123.800781 C 79.738281 124.316406 80.457031 125.082031 81.3125 125.480469 C 82.398438 126.378906 83.367188 127.152344 84.582031 127.933594 C 85.550781 128.707031 86.527344 129.230469 87.492188 130.003906 C 88.101562 130.394531 88.460938 130.777344 89.070312 131.167969 C 89.554688 131.429688 90.035156 131.9375 90.523438 132.203125 C 91.371094 132.847656 92.09375 133.613281 92.8125 134.375 C 93.652344 135.269531 94.742188 136.167969 95.582031 137.0625 C 96.421875 137.953125 97.253906 139.09375 98.09375 139.988281 C 98.808594 141 99.527344 141.765625 100.238281 142.777344 C 101.074219 143.917969 101.777344 145.179688 102.609375 146.320312 C 103.675781 147.960938 104.75 149.355469 105.941406 150.878906 C 108.09375 153.421875 110.375 155.84375 112.910156 158.027344 C 114.597656 159.566406 116.535156 161.109375 118.222656 162.648438 C 120.03125 164.3125 121.71875 165.851562 123.398438 167.636719 C 124.957031 169.292969 126.765625 170.960938 128.199219 172.738281 C 129.761719 174.394531 131.1875 176.421875 132.617188 178.199219 C 133.089844 178.957031 133.570312 179.464844 134.042969 180.222656 C 134.636719 181.109375 135.101562 182.113281 135.695312 183 C 136.871094 185.015625 138.042969 187.28125 139.09375 189.421875 C 140.261719 191.6875 141.433594 193.953125 142.484375 196.089844 C 144.464844 200.238281 146.191406 204.625 147.667969 209.007812 C 149.722656 214.769531 151.660156 220.402344 153.714844 226.164062 C 154.40625 227.917969 155.203125 230.296875 155.996094 232.675781 M 165.925781 178.835938 C 164.988281 177.070312 164.050781 175.308594 163.230469 173.671875 C 162.292969 171.910156 161.476562 170.277344 160.410156 168.632812 C 159.347656 166.988281 158.410156 165.226562 157.46875 163.464844 C 156.53125 161.703125 155.46875 160.058594 154.402344 158.414062 C 152.269531 155.128906 150.394531 151.605469 148.511719 148.328125 C 147.453125 146.4375 146.390625 144.792969 145.332031 142.902344 C 144.394531 141.140625 143.457031 139.378906 142.636719 137.742188 C 141.699219 135.980469 140.761719 134.214844 139.953125 132.332031 C 139.140625 130.449219 138.085938 128.558594 137.273438 126.675781 C 136.335938 124.914062 135.398438 123.152344 134.707031 121.398438 C 133.898438 119.515625 133.207031 117.757812 132.523438 115.753906 C 132.066406 114.503906 131.609375 113.25 131.28125 111.878906 C 130.949219 110.503906 130.621094 109.132812 130.289062 107.757812 C 129.957031 106.386719 129.75 105.140625 129.417969 103.769531 C 129.207031 102.523438 128.871094 101.398438 128.789062 100.03125 C 128.8125 99.289062 128.707031 98.667969 128.726562 97.925781 C 130.046875 99.328125 131.488281 100.855469 132.554688 102.5 C 133.386719 103.640625 134.09375 104.902344 134.804688 105.914062 C 135.511719 107.171875 136.214844 108.433594 137.046875 109.574219 C 137.984375 111.335938 138.929688 112.851562 139.867188 114.613281 C 140.933594 116.257812 142.121094 118.027344 143.183594 119.671875 C 144.371094 121.441406 145.5625 122.964844 146.75 124.734375 C 147.933594 126.503906 149 128.148438 149.9375 129.910156 C 152.058594 133.441406 153.679688 137.207031 155.179688 140.847656 C 155.992188 142.730469 156.675781 144.734375 157.476562 146.863281 C 158.167969 148.617188 158.859375 150.375 159.546875 152.128906 C 159.539062 152.375 159.78125 152.632812 159.773438 152.878906 C 159.894531 153.007812 159.886719 153.253906 160.003906 153.382812 C 160.464844 154.632812 160.921875 155.886719 161.371094 157.386719 C 162.054688 159.390625 162.488281 161.386719 162.925781 163.382812 C 163.359375 165.375 163.667969 167.492188 164.101562 169.488281 C 164.539062 171.484375 165.101562 173.359375 165.535156 175.355469 C 165.871094 176.480469 165.964844 177.597656 166.171875 178.84375 C 165.917969 179.082031 165.925781 178.835938 165.925781 178.835938 M 186.203125 167.925781 C 187.5 165.984375 188.796875 164.039062 190.09375 162.097656 C 191.386719 160.402344 192.683594 158.457031 193.972656 156.761719 C 195.390625 154.949219 196.679688 153.253906 198.097656 151.4375 C 199.515625 149.621094 200.8125 147.679688 201.984375 145.855469 C 203.402344 144.039062 204.699219 142.097656 206.117188 140.28125 C 207.414062 138.339844 208.832031 136.523438 210.128906 134.582031 C 211.300781 132.757812 212.71875 130.941406 214.007812 129.246094 C 215.171875 127.671875 216.332031 126.09375 217.617188 124.648438 C 218.769531 123.320312 219.925781 121.992188 221.074219 120.910156 C 221.203125 120.792969 221.328125 120.671875 221.585938 120.429688 C 222.859375 119.230469 224.128906 118.277344 225.402344 117.078125 C 226.804688 115.757812 228.082031 114.558594 229.484375 113.238281 C 230.628906 112.15625 231.660156 110.949219 232.925781 109.996094 C 232.902344 110.738281 232.890625 111.234375 232.867188 111.976562 C 232.84375 112.71875 232.703125 113.335938 232.679688 114.078125 C 232.09375 117.03125 231.390625 119.859375 230.554688 122.808594 C 229.574219 126.621094 228.589844 130.429688 227.609375 134.242188 C 227.1875 135.839844 226.777344 137.191406 226.355469 138.789062 C 225.832031 139.761719 225.304688 140.738281 225.027344 141.722656 C 223.046875 145.75 221.195312 149.65625 219.09375 153.558594 C 216.996094 157.460938 214.535156 160.976562 211.828125 164.488281 C 210.535156 166.183594 209 167.871094 207.339844 169.433594 C 205.929688 171 204.527344 172.320312 203 173.761719 C 202.742188 174 202.488281 174.242188 202.105469 174.601562 C 200.574219 176.042969 198.917969 177.601562 197.265625 178.914062 C 195.617188 180.226562 194.085938 181.667969 192.554688 183.109375 C 191.792969 183.828125 190.90625 184.421875 190.019531 185.015625 C 189.136719 185.605469 188.242188 186.449219 187.476562 187.167969 C 185.949219 188.609375 184.289062 190.167969 182.519531 191.355469 C 181.253906 192.308594 179.992188 193.011719 178.730469 193.71875 C 177.972656 194.191406 177.097656 194.535156 176.339844 195.007812 C 176.480469 194.390625 176.375 193.769531 176.519531 193.15625 C 176.546875 192.164062 176.828125 191.183594 176.855469 190.191406 C 177.011719 189.082031 177.164062 188.21875 177.441406 187.234375 C 177.71875 186.253906 178.117188 185.398438 178.394531 184.414062 C 179.070312 182.578125 179.742188 180.738281 180.417969 178.902344 C 181.339844 177.070312 182.015625 175.234375 183.058594 173.53125 C 183.988281 171.453125 185.03125 169.75 186.203125 167.925781 " fill-opacity="1" fill-rule="nonzero"/></g></g></g><g fill="#73187f" fill-opacity="1"><g transform="translate(137.343581, 61.999616)"><g><path d="M 0.109375 -10.015625 C -0.179688 -11.203125 -0.0859375 -12.25 0.390625 -13.15625 C 0.867188 -14.070312 1.539062 -14.632812 2.40625 -14.84375 C 3.09375 -15.019531 3.796875 -14.925781 4.515625 -14.5625 C 3.921875 -14.1875 3.554688 -13.695312 3.421875 -13.09375 C 3.285156 -12.5 3.300781 -11.863281 3.46875 -11.1875 C 3.769531 -10 4.472656 -8.925781 5.578125 -7.96875 C 6.679688 -7.007812 8.046875 -6.234375 9.671875 -5.640625 C 11.304688 -5.054688 13.085938 -4.710938 15.015625 -4.609375 C 16.941406 -4.503906 18.882812 -4.695312 20.84375 -5.1875 C 22.78125 -5.664062 24.5625 -6.359375 26.1875 -7.265625 C 27.820312 -8.179688 29.21875 -9.28125 30.375 -10.5625 C 31.53125 -11.84375 32.328125 -13.269531 32.765625 -14.84375 C 33.210938 -16.425781 33.207031 -18.132812 32.75 -19.96875 C 32.289062 -21.8125 31.539062 -23.253906 30.5 -24.296875 C 29.46875 -25.335938 28.234375 -26.0625 26.796875 -26.46875 C 25.359375 -26.875 23.773438 -27.09375 22.046875 -27.125 C 20.316406 -27.15625 18.519531 -27.085938 16.65625 -26.921875 C 14.789062 -26.753906 12.925781 -26.597656 11.0625 -26.453125 C 9.207031 -26.316406 7.410156 -26.285156 5.671875 -26.359375 C 3.941406 -26.429688 2.34375 -26.707031 0.875 -27.1875 C -0.582031 -27.675781 -1.832031 -28.476562 -2.875 -29.59375 C -3.925781 -30.707031 -4.695312 -32.242188 -5.1875 -34.203125 C -5.726562 -36.367188 -5.671875 -38.34375 -5.015625 -40.125 C -4.359375 -41.914062 -3.285156 -43.503906 -1.796875 -44.890625 C -0.304688 -46.273438 1.425781 -47.445312 3.40625 -48.40625 C 5.382812 -49.375 7.414062 -50.113281 9.5 -50.625 C 11.28125 -51.070312 13.15625 -51.390625 15.125 -51.578125 C 17.101562 -51.773438 19 -51.765625 20.8125 -51.546875 C 22.632812 -51.335938 24.175781 -50.867188 25.4375 -50.140625 C 26.707031 -49.421875 27.523438 -48.347656 27.890625 -46.921875 C 28.054688 -46.242188 28.070312 -45.609375 27.9375 -45.015625 C 27.800781 -44.429688 27.429688 -43.9375 26.828125 -43.53125 C 25.898438 -45.507812 24.5 -47.039062 22.625 -48.125 C 20.75 -49.207031 18.617188 -49.867188 16.234375 -50.109375 C 13.859375 -50.347656 11.441406 -50.160156 8.984375 -49.546875 C 4.753906 -48.492188 1.632812 -46.722656 -0.375 -44.234375 C -2.394531 -41.753906 -2.96875 -38.742188 -2.09375 -35.203125 C -1.707031 -33.660156 -0.945312 -32.539062 0.1875 -31.84375 C 1.320312 -31.144531 2.726562 -30.710938 4.40625 -30.546875 C 6.09375 -30.378906 7.941406 -30.359375 9.953125 -30.484375 C 11.972656 -30.617188 14.050781 -30.769531 16.1875 -30.9375 C 18.332031 -31.101562 20.4375 -31.148438 22.5 -31.078125 C 24.570312 -31.003906 26.5 -30.691406 28.28125 -30.140625 C 30.0625 -29.585938 31.585938 -28.675781 32.859375 -27.40625 C 34.140625 -26.132812 35.066406 -24.34375 35.640625 -22.03125 C 36.203125 -19.769531 36.1875 -17.671875 35.59375 -15.734375 C 35 -13.804688 33.984375 -12.085938 32.546875 -10.578125 C 31.109375 -9.078125 29.394531 -7.789062 27.40625 -6.71875 C 25.414062 -5.65625 23.300781 -4.847656 21.0625 -4.296875 C 17.445312 -3.390625 14.140625 -3.023438 11.140625 -3.203125 C 8.148438 -3.378906 5.691406 -4.050781 3.765625 -5.21875 C 1.835938 -6.394531 0.617188 -7.992188 0.109375 -10.015625 Z M 0.109375 -10.015625 "/></g></g></g><g fill="#73187f" fill-opacity="1"><g transform="translate(174.992878, 52.625135)"><g><path d="M 17.859375 0.953125 C 14.765625 0.941406 12.046875 0.238281 9.703125 -1.15625 C 7.367188 -2.550781 5.550781 -4.515625 4.25 -7.046875 C 2.957031 -9.578125 2.316406 -12.523438 2.328125 -15.890625 C 2.328125 -19.253906 2.976562 -22.195312 4.28125 -24.71875 C 5.59375 -27.238281 7.414062 -29.195312 9.75 -30.59375 C 12.09375 -31.988281 14.8125 -32.679688 17.90625 -32.671875 C 21.03125 -32.671875 23.753906 -31.96875 26.078125 -30.5625 C 28.410156 -29.164062 30.222656 -27.203125 31.515625 -24.671875 C 32.816406 -22.148438 33.46875 -19.207031 33.46875 -15.84375 C 33.457031 -12.476562 32.796875 -9.53125 31.484375 -7 C 30.179688 -4.476562 28.363281 -2.519531 26.03125 -1.125 C 23.707031 0.257812 20.984375 0.953125 17.859375 0.953125 Z M 6.09375 -15.875 C 6.082031 -12.6875 6.5625 -9.898438 7.53125 -7.515625 C 8.507812 -5.128906 9.882812 -3.273438 11.65625 -1.953125 C 13.4375 -0.640625 15.503906 0.0195312 17.859375 0.03125 C 20.222656 0.03125 22.289062 -0.625 24.0625 -1.9375 C 25.832031 -3.25 27.210938 -5.097656 28.203125 -7.484375 C 29.191406 -9.867188 29.691406 -12.65625 29.703125 -15.84375 C 29.703125 -19.03125 29.210938 -21.816406 28.234375 -24.203125 C 27.253906 -26.585938 25.878906 -28.441406 24.109375 -29.765625 C 22.335938 -31.085938 20.269531 -31.75 17.90625 -31.75 C 15.550781 -31.757812 13.484375 -31.101562 11.703125 -29.78125 C 9.929688 -28.46875 8.550781 -26.617188 7.5625 -24.234375 C 6.582031 -21.847656 6.09375 -19.0625 6.09375 -15.875 Z M 6.09375 -15.875 "/></g></g></g><g fill="#73187f" fill-opacity="1"><g transform="translate(208.70048, 53.465552)"><g><path d="M 6.625 0.96875 L 3 0.4375 L 7.609375 -31 L 11.234375 -30.46875 Z M 6.265625 -38.578125 C 6.128906 -38.660156 6.066406 -38.738281 6.078125 -38.8125 C 6.085938 -38.894531 6.164062 -38.9375 6.3125 -38.9375 C 7.195312 -39.09375 7.90625 -39.273438 8.4375 -39.484375 C 8.96875 -39.703125 9.421875 -40.0625 9.796875 -40.5625 C 10.171875 -41.0625 10.570312 -41.773438 11 -42.703125 C 11.082031 -42.847656 11.179688 -42.910156 11.296875 -42.890625 C 11.421875 -42.867188 11.484375 -42.785156 11.484375 -42.640625 C 11.617188 -41.628906 11.796875 -40.828125 12.015625 -40.234375 C 12.242188 -39.648438 12.578125 -39.171875 13.015625 -38.796875 C 13.453125 -38.421875 14.082031 -38.050781 14.90625 -37.6875 C 15.050781 -37.632812 15.117188 -37.566406 15.109375 -37.484375 C 15.097656 -37.410156 15.015625 -37.359375 14.859375 -37.328125 C 13.992188 -37.171875 13.273438 -36.984375 12.703125 -36.765625 C 12.128906 -36.554688 11.648438 -36.210938 11.265625 -35.734375 C 10.890625 -35.253906 10.515625 -34.515625 10.140625 -33.515625 C 10.109375 -33.390625 10.023438 -33.335938 9.890625 -33.359375 C 9.753906 -33.378906 9.675781 -33.453125 9.65625 -33.578125 C 9.53125 -34.648438 9.359375 -35.472656 9.140625 -36.046875 C 8.921875 -36.617188 8.585938 -37.085938 8.140625 -37.453125 C 7.691406 -37.816406 7.066406 -38.191406 6.265625 -38.578125 Z M 6.265625 -38.578125 "/></g></g></g><g fill="#73187f" fill-opacity="1"><g transform="translate(216.877774, 53.826543)"><g><path d="M 17.15625 5.828125 C 14.207031 4.992188 11.78125 3.585938 9.875 1.609375 C 7.96875 -0.359375 6.703125 -2.742188 6.078125 -5.546875 C 5.460938 -8.359375 5.625 -11.425781 6.5625 -14.75 C 7.1875 -16.957031 8.203125 -18.898438 9.609375 -20.578125 C 11.015625 -22.265625 12.671875 -23.640625 14.578125 -24.703125 C 16.492188 -25.773438 18.546875 -26.453125 20.734375 -26.734375 C 22.929688 -27.023438 25.148438 -26.847656 27.390625 -26.203125 C 28.921875 -25.773438 30.351562 -25.125 31.6875 -24.25 C 33.03125 -23.375 34.050781 -22.316406 34.75 -21.078125 C 35.457031 -19.847656 35.601562 -18.488281 35.1875 -17 C 34.71875 -15.375 33.789062 -14.015625 32.40625 -12.921875 C 31.019531 -11.835938 29.316406 -11.03125 27.296875 -10.5 C 25.285156 -9.976562 23.117188 -9.742188 20.796875 -9.796875 C 18.472656 -9.847656 16.132812 -10.207031 13.78125 -10.875 C 13.488281 -10.957031 13.21875 -11.035156 12.96875 -11.109375 C 12.71875 -11.179688 12.472656 -11.25 12.234375 -11.3125 C 11.566406 -11.539062 11 -11.515625 10.53125 -11.234375 C 10.070312 -10.953125 9.816406 -10.488281 9.765625 -9.84375 C 9.472656 -6.125 10.070312 -2.976562 11.5625 -0.40625 C 13.0625 2.164062 15.390625 3.898438 18.546875 4.796875 C 20.984375 5.484375 23.171875 5.441406 25.109375 4.671875 C 27.054688 3.898438 28.628906 2.796875 29.828125 1.359375 L 30.609375 2.140625 C 29.003906 3.972656 27.101562 5.253906 24.90625 5.984375 C 22.71875 6.722656 20.132812 6.671875 17.15625 5.828125 Z M 10.75 -15 C 10.582031 -14.507812 10.585938 -14.003906 10.765625 -13.484375 C 10.953125 -12.972656 11.28125 -12.617188 11.75 -12.421875 C 12.0625 -12.296875 12.394531 -12.160156 12.75 -12.015625 C 13.101562 -11.867188 13.5 -11.734375 13.9375 -11.609375 C 15.09375 -11.285156 16.382812 -11.085938 17.8125 -11.015625 C 19.238281 -10.941406 20.671875 -11.015625 22.109375 -11.234375 C 23.554688 -11.460938 24.929688 -11.84375 26.234375 -12.375 C 27.535156 -12.914062 28.648438 -13.628906 29.578125 -14.515625 C 30.515625 -15.398438 31.160156 -16.460938 31.515625 -17.703125 C 31.867188 -18.960938 31.878906 -20.117188 31.546875 -21.171875 C 31.210938 -22.222656 30.632812 -23.109375 29.8125 -23.828125 C 29 -24.554688 28.050781 -25.078125 26.96875 -25.390625 C 25.050781 -25.929688 23.226562 -26.023438 21.5 -25.671875 C 19.78125 -25.316406 18.207031 -24.628906 16.78125 -23.609375 C 15.363281 -22.597656 14.144531 -21.34375 13.125 -19.84375 C 12.101562 -18.351562 11.3125 -16.738281 10.75 -15 Z M 10.75 -15 "/></g></g></g><g fill="#73187f" fill-opacity="1"><g transform="translate(154.893624, 368.638199)"><g><path d="M 5.46875 0.265625 C 4.632812 0.265625 3.914062 0.15625 3.3125 -0.0625 C 2.707031 -0.28125 2.207031 -0.570312 1.8125 -0.9375 C 1.425781 -1.300781 1.140625 -1.707031 0.953125 -2.15625 C 0.765625 -2.613281 0.671875 -3.070312 0.671875 -3.53125 L 2.265625 -3.53125 C 2.265625 -3.101562 2.390625 -2.703125 2.640625 -2.328125 C 2.898438 -1.960938 3.265625 -1.664062 3.734375 -1.4375 C 4.210938 -1.21875 4.785156 -1.109375 5.453125 -1.109375 C 6.492188 -1.109375 7.289062 -1.296875 7.84375 -1.671875 C 8.40625 -2.054688 8.6875 -2.625 8.6875 -3.375 C 8.6875 -3.851562 8.546875 -4.238281 8.265625 -4.53125 C 7.984375 -4.820312 7.601562 -5.050781 7.125 -5.21875 C 6.65625 -5.382812 6.113281 -5.507812 5.5 -5.59375 C 5.09375 -5.664062 4.675781 -5.753906 4.25 -5.859375 C 3.820312 -5.960938 3.414062 -6.097656 3.03125 -6.265625 C 2.644531 -6.429688 2.296875 -6.640625 1.984375 -6.890625 C 1.679688 -7.140625 1.4375 -7.441406 1.25 -7.796875 C 1.070312 -8.160156 0.984375 -8.585938 0.984375 -9.078125 C 0.984375 -9.535156 1.066406 -9.96875 1.234375 -10.375 C 1.398438 -10.78125 1.660156 -11.140625 2.015625 -11.453125 C 2.367188 -11.773438 2.820312 -12.023438 3.375 -12.203125 C 3.9375 -12.378906 4.613281 -12.46875 5.40625 -12.46875 C 6.363281 -12.46875 7.164062 -12.316406 7.8125 -12.015625 C 8.46875 -11.722656 8.960938 -11.316406 9.296875 -10.796875 C 9.640625 -10.273438 9.8125 -9.675781 9.8125 -9 L 8.203125 -9 C 8.203125 -9.40625 8.09375 -9.765625 7.875 -10.078125 C 7.664062 -10.390625 7.351562 -10.632812 6.9375 -10.8125 C 6.519531 -10.988281 6.003906 -11.078125 5.390625 -11.078125 C 4.835938 -11.078125 4.378906 -11.019531 4.015625 -10.90625 C 3.648438 -10.789062 3.363281 -10.640625 3.15625 -10.453125 C 2.945312 -10.265625 2.796875 -10.050781 2.703125 -9.8125 C 2.617188 -9.570312 2.578125 -9.328125 2.578125 -9.078125 C 2.578125 -8.648438 2.707031 -8.296875 2.96875 -8.015625 C 3.238281 -7.734375 3.628906 -7.507812 4.140625 -7.34375 C 4.648438 -7.175781 5.269531 -7.039062 6 -6.9375 C 6.40625 -6.875 6.8125 -6.785156 7.21875 -6.671875 C 7.625 -6.566406 8.007812 -6.429688 8.375 -6.265625 C 8.75 -6.097656 9.078125 -5.882812 9.359375 -5.625 C 9.648438 -5.363281 9.878906 -5.046875 10.046875 -4.671875 C 10.210938 -4.304688 10.296875 -3.875 10.296875 -3.375 C 10.296875 -2.613281 10.097656 -1.957031 9.703125 -1.40625 C 9.316406 -0.863281 8.765625 -0.445312 8.046875 -0.15625 C 7.328125 0.125 6.46875 0.265625 5.46875 0.265625 Z M 5.46875 0.265625 "/></g></g></g><g fill="#73187f" fill-opacity="1"><g transform="translate(165.811542, 368.638199)"><g><path d="M 5.890625 0 L 4.296875 0 L 4.296875 -10.78125 L 0.4375 -10.78125 L 0.4375 -12.203125 L 9.75 -12.203125 L 9.75 -10.78125 L 5.890625 -10.78125 Z M 5.890625 0 "/></g></g></g><g fill="#73187f" fill-opacity="1"><g transform="translate(176.011766, 368.638199)"><g><path d="M 6.703125 0 L 5.109375 0 L 5.109375 -4.671875 L 0.171875 -12.203125 L 2.046875 -12.203125 L 5.90625 -6.09375 L 9.75 -12.203125 L 11.625 -12.203125 L 6.6875 -4.6875 Z M 6.703125 0 "/></g></g></g><g fill="#73187f" fill-opacity="1"><g transform="translate(187.8268, 368.638199)"><g><path d="M 9.171875 0 L 1.65625 0 L 1.65625 -12.203125 L 3.25 -12.203125 L 3.25 -1.4375 L 9.171875 -1.4375 Z M 9.171875 0 "/></g></g></g><g fill="#73187f" fill-opacity="1"><g transform="translate(197.363158, 368.638199)"><g><path d="M 3.25 0 L 1.65625 0 L 1.65625 -12.203125 L 3.25 -12.203125 Z M 3.25 0 "/></g></g></g><g fill="#73187f" fill-opacity="1"><g transform="translate(202.270394, 368.638199)"><g><path d="M 10.53125 -2.640625 L 10.53125 -12.203125 L 12.109375 -12.203125 L 12.109375 0 L 10.75 0 L 3.25 -9.53125 L 3.25 0 L 1.65625 0 L 1.65625 -12.203125 L 3 -12.203125 L 10.515625 -2.640625 Z M 10.53125 -2.640625 "/></g></g></g><g fill="#73187f" fill-opacity="1"><g transform="translate(216.032163, 368.638199)"><g><path d="M 7.140625 0.234375 C 6.429688 0.234375 5.753906 0.128906 5.109375 -0.078125 C 4.460938 -0.296875 3.875 -0.597656 3.34375 -0.984375 C 2.8125 -1.367188 2.347656 -1.828125 1.953125 -2.359375 C 1.566406 -2.890625 1.265625 -3.46875 1.046875 -4.09375 C 0.835938 -4.726562 0.734375 -5.398438 0.734375 -6.109375 C 0.734375 -6.816406 0.835938 -7.488281 1.046875 -8.125 C 1.265625 -8.769531 1.566406 -9.351562 1.953125 -9.875 C 2.347656 -10.40625 2.8125 -10.863281 3.34375 -11.25 C 3.875 -11.632812 4.460938 -11.929688 5.109375 -12.140625 C 5.753906 -12.359375 6.429688 -12.46875 7.140625 -12.46875 C 7.785156 -12.46875 8.421875 -12.375 9.046875 -12.1875 C 9.671875 -12.007812 10.25 -11.742188 10.78125 -11.390625 C 11.3125 -11.035156 11.765625 -10.601562 12.140625 -10.09375 C 12.523438 -9.582031 12.800781 -9.003906 12.96875 -8.359375 L 11.34375 -8.359375 C 11.125 -8.910156 10.804688 -9.382812 10.390625 -9.78125 C 9.972656 -10.175781 9.484375 -10.476562 8.921875 -10.6875 C 8.367188 -10.90625 7.765625 -11.015625 7.109375 -11.015625 C 6.441406 -11.015625 5.816406 -10.894531 5.234375 -10.65625 C 4.660156 -10.414062 4.15625 -10.070312 3.71875 -9.625 C 3.28125 -9.1875 2.9375 -8.664062 2.6875 -8.0625 C 2.445312 -7.46875 2.328125 -6.816406 2.328125 -6.109375 C 2.328125 -5.390625 2.445312 -4.726562 2.6875 -4.125 C 2.9375 -3.53125 3.28125 -3.015625 3.71875 -2.578125 C 4.15625 -2.148438 4.660156 -1.816406 5.234375 -1.578125 C 5.816406 -1.347656 6.441406 -1.234375 7.109375 -1.234375 C 7.796875 -1.234375 8.40625 -1.328125 8.9375 -1.515625 C 9.476562 -1.710938 9.9375 -1.984375 10.3125 -2.328125 C 10.695312 -2.671875 11.003906 -3.066406 11.234375 -3.515625 C 11.460938 -3.972656 11.617188 -4.460938 11.703125 -4.984375 L 7.046875 -4.984375 L 7.046875 -6.421875 L 13.359375 -6.421875 C 13.359375 -5.503906 13.222656 -4.640625 12.953125 -3.828125 C 12.679688 -3.023438 12.28125 -2.316406 11.75 -1.703125 C 11.21875 -1.097656 10.5625 -0.625 9.78125 -0.28125 C 9.007812 0.0625 8.128906 0.234375 7.140625 0.234375 Z M 7.140625 0.234375 "/></g></g></g></svg>