<svg xmlns="http://www.w3.org/2000/svg" xmlns:xlink="http://www.w3.org/1999/xlink" width="500" zoomAndPan="magnify" viewBox="0 0 375 374.999991" height="500" preserveAspectRatio="xMidYMid meet" version="1.0"><defs><filter x="0%" y="0%" width="100%" height="100%" id="a38363c5b1"><feColorMatrix values="0 0 0 0 1 0 0 0 0 1 0 0 0 0 1 0 0 0 1 0" color-interpolation-filters="sRGB"/></filter><g/><clipPath id="d4177ff93d"><path d="M 3.738281 3.738281 L 370.972656 3.738281 L 370.972656 370.972656 L 3.738281 370.972656 Z M 3.738281 3.738281 " clip-rule="nonzero"/></clipPath><clipPath id="2624afb522"><path d="M 187.355469 3.738281 C 85.945312 3.738281 3.738281 85.945312 3.738281 187.355469 C 3.738281 288.765625 85.945312 370.972656 187.355469 370.972656 C 288.765625 370.972656 370.972656 288.765625 370.972656 187.355469 C 370.972656 85.945312 288.765625 3.738281 187.355469 3.738281 Z M 187.355469 3.738281 " clip-rule="nonzero"/></clipPath><clipPath id="d612f089e1"><path d="M 101 104 L 223 104 L 223 293 L 101 293 Z M 101 104 " clip-rule="nonzero"/></clipPath><clipPath id="56ac3dc911"><path d="M 73.214844 159.382812 L 172.609375 65.824219 L 301.636719 202.902344 L 202.242188 296.460938 Z M 73.214844 159.382812 " clip-rule="nonzero"/></clipPath><clipPath id="752240709c"><path d="M 73.214844 159.382812 L 172.609375 65.824219 L 301.636719 202.902344 L 202.242188 296.460938 Z M 73.214844 159.382812 " clip-rule="nonzero"/></clipPath><mask id="f47918005b"><g filter="url(#a38363c5b1)"><rect x="-37.5" width="450" fill="#000000" y="-37.499999" height="449.999989" fill-opacity="0.4"/></g></mask><clipPath id="12754cc890"><path d="M 0.355469 1.914062 L 206 1.914062 L 206 161.664062 L 0.355469 161.664062 Z M 0.355469 1.914062 " clip-rule="nonzero"/></clipPath><clipPath id="d267077f97"><rect x="0" width="208" y="0" height="162"/></clipPath></defs><g clip-path="url(#d4177ff93d)"><g clip-path="url(#2624afb522)"><path fill="#ffffff" d="M 3.738281 3.738281 L 370.972656 3.738281 L 370.972656 370.972656 L 3.738281 370.972656 Z M 3.738281 3.738281 " fill-opacity="1" fill-rule="nonzero"/></g></g><g clip-path="url(#d612f089e1)"><g clip-path="url(#56ac3dc911)"><g clip-path="url(#752240709c)"><path fill="#73187f" d="M 208.734375 104.972656 C 208.304688 104.695312 207.949219 104.859375 207.585938 105.199219 C 207.226562 105.539062 206.867188 105.878906 206.503906 106.21875 C 205.964844 106.726562 205.511719 107.152344 204.972656 107.664062 C 203.972656 108.769531 203.066406 109.796875 202.070312 110.90625 C 201.890625 111.074219 201.703125 111.417969 201.523438 111.589844 C 200.710938 112.351562 199.894531 113.292969 199.167969 114.144531 C 198.710938 114.746094 198.167969 115.253906 197.714844 115.855469 C 197.347656 116.371094 196.804688 116.878906 196.441406 117.394531 C 194.621094 119.617188 192.714844 121.75 190.804688 124.058594 C 189.800781 125.34375 188.800781 126.625 187.972656 127.917969 C 187.148438 129.03125 186.328125 130.144531 185.589844 131.347656 C 184.851562 132.554688 184.289062 133.765625 183.636719 135.058594 C 182.984375 136.351562 182.332031 137.648438 181.679688 138.941406 C 181.304688 139.808594 180.839844 140.582031 180.554688 141.363281 C 180.183594 142.050781 179.988281 142.746094 179.789062 143.441406 C 179.3125 144.742188 178.921875 146.132812 178.527344 147.523438 C 178.242188 148.300781 178.039062 149.171875 177.84375 149.867188 C 177.371094 150.992188 176.984375 152.207031 176.597656 153.421875 C 175.636719 156.199219 174.585938 159.058594 173.625 161.832031 C 172.945312 164.003906 172.269531 166.171875 171.675781 168.433594 C 171.21875 166.140625 170.847656 163.941406 170.210938 161.816406 C 169.730469 160.226562 169.164062 158.71875 168.597656 157.210938 C 168.113281 155.796875 167.539062 154.464844 166.964844 153.132812 C 165.820312 150.46875 164.847656 147.808594 163.613281 145.230469 C 163.039062 143.898438 162.292969 142.5625 161.453125 141.308594 C 160.699219 140.148438 159.945312 138.984375 159.109375 137.734375 C 158.183594 136.390625 157.171875 135.132812 156.246094 133.792969 C 155.402344 132.714844 154.644531 131.726562 153.800781 130.652344 C 153.550781 130.207031 153.210938 129.84375 152.960938 129.398438 C 151.371094 126.984375 149.695312 124.480469 147.835938 122.144531 C 146.90625 120.976562 145.972656 119.984375 144.957031 118.902344 C 144.445312 118.363281 143.847656 117.90625 143.246094 117.449219 C 142.730469 117.082031 142.046875 116.539062 141.433594 116.605469 C 141.082031 116.597656 140.640625 116.671875 140.28125 117.007812 C 140.011719 117.265625 139.914062 117.523438 139.730469 117.871094 C 139.449219 118.472656 139.425781 119.175781 139.40625 119.875 C 139.382812 120.574219 139.453125 121.191406 139.433594 121.890625 C 139.558594 123.472656 139.777344 124.96875 140.085938 126.378906 C 140.394531 127.792969 140.523438 129.199219 140.921875 130.523438 C 141.078125 131.230469 141.320312 131.851562 141.476562 132.554688 C 141.714844 133.351562 142.039062 134.238281 142.367188 134.949219 C 142.851562 136.367188 143.421875 137.699219 143.996094 139.03125 C 144.570312 140.363281 145.234375 141.609375 145.722656 142.851562 C 146.292969 144.179688 146.867188 145.511719 147.613281 146.851562 C 148.277344 148.097656 148.851562 149.429688 149.515625 150.675781 C 150.179688 151.921875 150.667969 153.164062 151.328125 154.410156 C 151.992188 155.660156 152.65625 156.90625 153.320312 158.152344 C 153.984375 159.398438 154.648438 160.644531 155.394531 161.984375 C 156.058594 163.230469 156.722656 164.476562 157.558594 165.730469 C 158.3125 166.890625 158.976562 168.136719 159.730469 169.300781 C 160.476562 170.636719 161.316406 171.890625 162.246094 173.054688 C 163.089844 174.132812 163.933594 175.210938 164.777344 176.289062 C 165.621094 177.363281 166.554688 178.355469 167.3125 179.34375 C 168.066406 180.503906 168.644531 181.664062 169.222656 182.820312 C 168.988281 184.738281 168.667969 186.746094 168.34375 188.75 C 168.125 190.148438 167.90625 191.542969 167.691406 192.9375 C 167.378906 194.59375 167.238281 196.253906 167.101562 197.914062 C 166.96875 199.402344 166.925781 200.800781 166.792969 202.285156 C 166.746094 203.863281 166.789062 205.355469 166.917969 206.933594 C 166.953125 208.601562 167.167969 210.273438 167.292969 211.855469 C 167.425781 213.257812 167.644531 214.757812 167.863281 216.253906 C 167.9375 216.691406 167.921875 217.21875 167.996094 217.660156 C 167.433594 215.976562 166.871094 214.292969 166.308594 212.613281 C 165.585938 210.398438 164.863281 208.1875 164.050781 206.058594 C 163.339844 203.496094 162.539062 201.019531 161.738281 198.542969 C 160.699219 195.265625 159.308594 191.984375 158 188.789062 C 156.605469 185.679688 155.210938 182.570312 153.730469 179.371094 C 153.070312 177.949219 152.328125 176.4375 151.496094 175.007812 C 151.082031 174.207031 150.578125 173.492188 150.074219 172.777344 C 149.484375 171.96875 148.980469 171.253906 148.390625 170.445312 C 147.378906 169.1875 146.363281 167.929688 145.351562 166.675781 C 144.253906 165.328125 143.152344 163.980469 142.054688 162.632812 C 140.027344 160.117188 137.734375 157.679688 135.4375 155.421875 C 134.25 154.15625 133.144531 152.984375 131.867188 151.808594 C 130.589844 150.628906 129.398438 149.367188 128.03125 148.273438 C 126.660156 147.179688 125.292969 146.085938 123.832031 145.078125 C 122.375 144.070312 121.003906 142.980469 119.722656 141.976562 C 118.4375 140.972656 117.0625 140.054688 115.777344 139.050781 C 115.265625 138.6875 114.75 138.320312 114.234375 137.953125 C 113.894531 137.59375 113.640625 137.324219 113.210938 137.046875 C 112.441406 136.410156 111.671875 135.773438 110.988281 135.226562 C 109.789062 134.3125 108.503906 133.3125 107.207031 132.660156 C 106.6875 132.46875 106.257812 132.191406 105.738281 132 C 105.480469 131.90625 105.21875 131.808594 104.960938 131.714844 C 104.523438 131.613281 103.828125 131.417969 103.382812 131.667969 C 103.039062 131.480469 102.683594 131.644531 102.414062 131.902344 C 102.140625 132.15625 101.867188 132.585938 101.855469 132.933594 C 101.84375 133.285156 101.75 133.546875 101.738281 133.894531 C 101.734375 134.070312 101.726562 134.246094 101.8125 134.335938 C 101.882812 134.953125 101.867188 135.476562 101.933594 136.09375 C 102.152344 137.589844 102.457031 139.175781 102.847656 140.675781 C 103.234375 142.351562 103.449219 144.023438 104.011719 145.707031 C 104.332031 146.59375 104.574219 147.390625 104.722656 148.269531 C 104.960938 149.066406 105.199219 149.863281 105.4375 150.65625 C 106.085938 152.429688 106.734375 154.203125 107.378906 155.972656 C 107.378906 155.972656 107.464844 156.0625 107.464844 156.0625 C 107.464844 156.0625 107.550781 156.152344 107.550781 156.152344 C 107.628906 156.417969 107.714844 156.507812 107.792969 156.773438 C 108.203125 157.75 108.519531 158.8125 108.929688 159.789062 C 109.34375 160.589844 109.582031 161.386719 109.996094 162.1875 C 110.410156 162.988281 110.824219 163.789062 111.152344 164.5 C 111.566406 165.300781 111.894531 166.011719 112.21875 166.898438 C 112.871094 168.496094 113.699219 170.097656 114.527344 171.699219 C 115.355469 173.304688 116.273438 174.820312 117.1875 176.511719 C 118.847656 179.542969 120.683594 182.578125 122.519531 185.613281 C 124.441406 188.738281 126.277344 191.773438 128.109375 194.984375 C 129.027344 196.5 129.859375 197.925781 130.777344 199.445312 C 131.695312 200.960938 132.527344 202.390625 133.445312 203.90625 C 135.28125 206.941406 137.296875 209.808594 139.226562 212.757812 C 140.234375 214.191406 141.15625 215.53125 142.164062 216.964844 C 143.257812 218.488281 144.4375 220.101562 145.527344 221.625 C 146.535156 223.054688 147.71875 224.492188 148.910156 225.757812 C 150.097656 227.019531 151.109375 228.277344 152.300781 229.539062 C 153.398438 230.886719 154.585938 232.148438 155.683594 233.496094 C 156.695312 234.929688 157.796875 236.101562 158.984375 237.367188 C 160.175781 238.628906 161.449219 239.980469 162.636719 241.242188 C 163.824219 242.507812 164.929688 243.679688 166.117188 244.941406 C 166.628906 245.484375 167.050781 245.933594 167.46875 246.558594 C 168.394531 247.902344 169.492188 249.25 170.507812 250.507812 C 171.605469 251.855469 172.617188 253.113281 173.714844 254.460938 C 174.226562 255.003906 174.644531 255.628906 175.0625 256.253906 C 175.128906 257.042969 175.28125 257.75 175.429688 258.632812 C 175.652344 259.953125 176.226562 261.285156 176.625 262.609375 C 177.015625 264.113281 177.5 265.527344 178.074219 266.859375 C 179.304688 269.613281 180.890625 272.203125 182.65625 274.625 C 183.585938 275.789062 184.429688 276.867188 185.359375 278.035156 C 186.378906 279.117188 187.3125 280.109375 188.332031 281.191406 C 189.347656 282.273438 190.285156 283.265625 191.390625 284.265625 C 192.5 285.261719 193.527344 286.167969 194.726562 287.082031 C 194.726562 287.082031 194.808594 287.171875 194.808594 287.171875 C 194.808594 287.171875 194.894531 287.261719 194.894531 287.261719 C 195.148438 287.53125 195.578125 287.808594 195.917969 288.167969 C 196.171875 288.4375 196.429688 288.710938 196.683594 288.980469 C 197.191406 289.523438 197.875 290.066406 198.566406 290.441406 C 198.738281 290.621094 199 290.539062 199.265625 290.460938 C 199.527344 290.554688 199.613281 290.648438 199.871094 290.742188 C 200.648438 291.203125 201.332031 291.75 202.109375 292.035156 C 202.632812 292.226562 203.234375 292.507812 203.757812 292.699219 C 204.015625 292.796875 204.367188 292.804688 204.714844 292.816406 C 205.066406 292.828125 205.507812 292.753906 205.863281 292.589844 C 206.121094 292.683594 206.296875 292.6875 206.5625 292.609375 C 206.828125 292.53125 206.917969 292.445312 207.097656 292.273438 C 207.1875 292.191406 207.277344 292.105469 207.371094 292.019531 C 207.554688 291.675781 207.652344 291.414062 207.484375 291.058594 C 207.40625 290.792969 207.320312 290.703125 207.152344 290.523438 C 206.898438 290.253906 206.46875 289.976562 206.210938 289.707031 C 206.042969 289.527344 205.789062 289.257812 205.527344 289.160156 C 205.011719 288.792969 204.5 288.429688 203.984375 288.0625 C 203.039062 287.421875 202.183594 286.695312 201.15625 285.960938 C 199.960938 284.875 198.675781 283.871094 197.574219 282.699219 C 195.957031 281.160156 194.34375 279.445312 192.8125 277.820312 C 192.304688 277.28125 191.796875 276.738281 191.285156 276.199219 C 191.285156 276.199219 191.199219 276.109375 191.292969 276.023438 C 191.207031 275.933594 191.210938 275.757812 191.210938 275.757812 C 191.125 275.667969 191.042969 275.578125 191.042969 275.578125 C 190.707031 275.042969 190.28125 274.589844 189.949219 274.054688 C 189.949219 274.054688 190.035156 274.144531 190.035156 274.144531 C 189.777344 273.875 189.613281 273.519531 189.359375 273.25 C 189.464844 272.636719 189.480469 272.113281 189.671875 271.59375 C 189.777344 270.984375 189.976562 270.289062 190.082031 269.675781 C 190.28125 268.808594 190.484375 267.9375 190.511719 267.0625 C 190.621094 266.277344 190.726562 265.667969 190.664062 264.875 C 190.6875 264.175781 190.621094 263.382812 190.644531 262.683594 C 190.648438 259.617188 190.652344 256.550781 190.832031 253.488281 C 190.882812 251.914062 191.015625 250.425781 190.972656 248.9375 C 191.105469 247.449219 191.0625 245.960938 191.195312 244.472656 C 191.460938 241.503906 191.640625 238.441406 192.167969 235.390625 C 192.699219 232.339844 193.320312 229.203125 193.765625 226.0625 C 193.898438 224.574219 194.03125 223.089844 194.253906 221.519531 C 194.476562 219.949219 194.609375 218.464844 194.917969 216.984375 C 194.929688 216.632812 195.027344 216.199219 195.039062 215.847656 C 195.246094 214.800781 195.363281 213.84375 195.570312 212.796875 C 195.886719 210.964844 196.117188 209.21875 196.34375 207.472656 C 196.566406 205.902344 196.53125 204.238281 196.488281 202.746094 C 196.421875 201.957031 196.535156 201.171875 196.554688 200.46875 C 196.667969 199.683594 196.695312 198.808594 196.628906 198.019531 C 196.640625 197.667969 196.566406 197.230469 196.402344 196.875 C 196.320312 196.609375 196.15625 196.253906 195.902344 195.980469 C 195.902344 195.980469 195.902344 195.980469 195.816406 195.890625 C 195.222656 195.261719 194.261719 195.144531 193.550781 195.472656 C 193.105469 195.722656 192.921875 196.066406 192.558594 196.40625 C 192.105469 197.007812 191.472656 197.601562 191.015625 198.199219 C 190.46875 198.882812 189.921875 199.570312 189.375 200.253906 C 188.921875 200.851562 188.457031 201.628906 188.003906 202.226562 C 187.085938 203.601562 186.425781 205.070312 185.59375 206.535156 C 184.9375 208.003906 184.1875 209.558594 183.53125 211.03125 C 182.960938 212.414062 182.304688 213.886719 181.820312 215.359375 C 181.535156 216.140625 181.339844 216.835938 181.136719 217.707031 C 180.851562 218.484375 180.738281 219.269531 180.539062 220.140625 C 180.230469 221.621094 179.835938 223.011719 179.53125 224.492188 C 178.820312 227.710938 178.367188 231.027344 178.007812 234.261719 C 177.78125 236.007812 177.636719 237.84375 177.492188 239.679688 C 177.417969 239.238281 177.34375 238.796875 177.269531 238.355469 C 176.960938 236.945312 176.660156 235.359375 176.441406 233.863281 C 176.132812 232.453125 176 231.046875 175.785156 229.550781 C 175.652344 228.144531 175.433594 226.644531 175.300781 225.242188 C 175.25 224.097656 175.109375 222.867188 175.140625 221.816406 C 175.09375 220.503906 175.132812 219.277344 175.082031 217.960938 C 175.035156 216.644531 175.078125 215.242188 175.03125 213.929688 C 175.066406 212.703125 174.929688 211.472656 174.882812 210.15625 C 174.839844 208.664062 174.882812 207.261719 174.839844 205.773438 C 174.886719 204.195312 174.84375 202.707031 174.890625 201.128906 C 174.789062 198.671875 174.953125 196.136719 175.027344 193.683594 C 175.292969 193.605469 175.46875 193.609375 175.734375 193.53125 C 176.878906 193.304688 177.855469 192.894531 178.832031 192.484375 C 178.921875 192.402344 179.097656 192.40625 179.1875 192.320312 C 179.1875 192.320312 179.1875 192.320312 179.097656 192.40625 C 180.25 192.003906 181.316406 191.507812 182.46875 191.105469 C 183.089844 190.863281 183.535156 190.613281 184.070312 190.277344 C 184.605469 189.945312 185.050781 189.695312 185.503906 189.269531 C 186.664062 188.515625 187.742188 187.671875 188.820312 186.828125 C 189.625 186.238281 190.347656 185.5625 191.070312 184.882812 C 191.25 184.710938 191.339844 184.628906 191.519531 184.457031 C 192.152344 183.863281 192.871094 183.183594 193.503906 182.589844 C 194.855469 181.316406 196.300781 179.957031 197.742188 178.597656 C 199.28125 176.980469 200.820312 175.363281 202.1875 173.5625 C 202.910156 172.882812 203.546875 172.113281 204.09375 171.429688 C 206.273438 168.867188 208.195312 166.207031 209.945312 163.371094 C 210.773438 162.082031 211.433594 160.609375 212.175781 159.230469 C 212.917969 157.851562 213.574219 156.382812 214.316406 155.003906 C 214.976562 153.53125 215.808594 152.066406 216.464844 150.597656 C 217.125 149.128906 217.78125 147.660156 218.441406 146.1875 C 218.816406 145.324219 219.1875 144.632812 219.566406 143.769531 C 219.847656 143.164062 220.128906 142.558594 220.324219 141.863281 C 220.425781 141.429688 220.617188 140.910156 220.714844 140.472656 C 221.007812 139.519531 221.125 138.558594 221.417969 137.601562 C 221.523438 136.992188 221.71875 136.296875 221.738281 135.597656 C 221.839844 135.164062 221.765625 134.722656 221.867188 134.285156 C 221.882812 133.761719 221.90625 133.0625 221.921875 132.535156 C 222.117188 131.839844 222.226562 131.054688 222.425781 130.359375 C 222.722656 129.230469 222.84375 128.09375 222.789062 126.953125 C 222.730469 125.988281 222.667969 125.199219 222.34375 124.3125 C 222.179688 123.957031 222.191406 123.605469 221.9375 123.335938 C 221.6875 122.890625 221.261719 122.4375 220.832031 122.164062 C 220.570312 122.066406 220.316406 121.796875 219.96875 121.785156 C 219.445312 121.59375 218.921875 121.578125 218.476562 121.828125 C 217.945312 121.988281 217.5 122.238281 216.96875 122.394531 C 215.816406 122.800781 214.40625 123.109375 213.589844 124.046875 C 213.320312 124.300781 213.132812 124.644531 213.03125 125.082031 C 212.761719 125.335938 212.582031 125.507812 212.3125 125.761719 C 210.957031 127.035156 209.515625 128.394531 208.160156 129.667969 C 207.800781 130.003906 207.441406 130.34375 207.078125 130.683594 C 206.363281 131.1875 205.730469 131.785156 205.015625 132.289062 C 203.847656 133.214844 202.761719 134.410156 201.761719 135.519531 C 200.667969 136.886719 199.667969 138.171875 198.574219 139.542969 C 196.832031 142.03125 195.09375 144.519531 193.269531 146.917969 C 193.269531 146.917969 193.179688 147 193.179688 147 C 191.90625 148.539062 190.542969 150.164062 189.269531 151.703125 C 187.90625 153.328125 186.546875 154.777344 185.265625 156.488281 C 184.628906 157.257812 184.078125 158.117188 183.527344 158.976562 C 182.976562 159.835938 182.507812 160.789062 182.042969 161.738281 C 182.035156 161.914062 181.855469 162.082031 181.851562 162.257812 C 181.671875 162.425781 181.574219 162.6875 181.394531 162.855469 C 180.570312 163.972656 179.839844 165 179.191406 166.121094 C 179.199219 165.945312 179.203125 165.769531 179.296875 165.511719 C 180 162.640625 180.875 159.773438 181.664062 156.820312 C 182.449219 154.039062 183.148438 151.167969 183.933594 148.386719 C 184.328125 146.996094 184.808594 145.523438 185.289062 144.222656 C 185.675781 143.007812 186.238281 141.796875 186.800781 140.585938 C 187.265625 139.636719 187.738281 138.511719 188.207031 137.5625 C 188.679688 136.4375 189.148438 135.3125 189.621094 134.1875 C 190.273438 132.894531 190.835938 131.683594 191.574219 130.480469 C 191.945312 129.789062 192.226562 129.183594 192.59375 128.667969 C 193.511719 127.296875 194.429688 125.921875 195.523438 124.550781 C 196.351562 123.261719 197.261719 122.0625 198.089844 120.773438 C 198.917969 119.484375 199.832031 118.285156 200.742188 117.085938 C 201.566406 115.972656 202.476562 114.773438 203.300781 113.65625 C 204.210938 112.457031 205.125 111.257812 206.039062 110.058594 C 205.949219 110.144531 205.859375 110.230469 205.859375 110.230469 C 206.675781 109.292969 207.40625 108.261719 208.222656 107.324219 C 208.222656 107.324219 208.222656 107.324219 208.3125 107.238281 C 208.3125 107.238281 208.402344 107.152344 208.402344 107.152344 C 208.402344 107.152344 208.3125 107.238281 208.3125 107.238281 C 208.496094 107.066406 208.679688 106.722656 208.859375 106.554688 C 209.039062 106.382812 209.132812 106.296875 209.226562 106.039062 C 209.148438 105.773438 209.164062 105.246094 208.734375 104.972656 M 180.847656 238.902344 C 181.117188 235.757812 181.5625 232.617188 182.007812 229.472656 C 182.019531 229.125 182.121094 228.6875 182.128906 228.339844 C 182.554688 225.898438 183.0625 223.546875 183.664062 221.113281 C 183.964844 219.804688 184.261719 218.675781 184.648438 217.460938 C 184.945312 216.332031 185.503906 215.296875 185.886719 214.257812 C 186.921875 211.921875 188.125 209.765625 189.152344 207.609375 C 189.710938 206.574219 190.359375 205.453125 190.914062 204.417969 C 191.28125 203.902344 191.738281 203.304688 192.105469 202.789062 C 192.089844 203.316406 192.074219 203.839844 191.972656 204.273438 C 191.917969 206.027344 191.691406 207.773438 191.371094 209.601562 C 191.148438 211.171875 190.75 212.738281 190.527344 214.308594 C 190.214844 215.964844 189.902344 217.621094 189.765625 219.28125 C 189.324219 222.246094 189.144531 225.308594 188.703125 228.273438 C 188.703125 228.273438 188.699219 228.449219 188.699219 228.449219 C 188.386719 230.105469 188.078125 231.585938 187.765625 233.242188 C 187.453125 234.898438 187.222656 236.640625 187.085938 238.304688 C 186.863281 239.875 186.816406 241.449219 186.59375 243.019531 C 186.460938 244.507812 186.238281 246.078125 186.191406 247.652344 C 186.144531 249.226562 186.183594 250.71875 186.054688 252.203125 C 186.003906 253.78125 185.871094 255.265625 185.824219 256.84375 C 185.867188 258.332031 185.820312 259.910156 185.773438 261.484375 C 185.730469 262.886719 185.777344 264.203125 185.558594 265.597656 C 185.558594 265.597656 185.554688 265.773438 185.554688 265.773438 C 185.144531 264.796875 184.738281 263.820312 184.328125 262.84375 C 184.003906 261.957031 183.765625 261.160156 183.441406 260.277344 C 182.875 258.769531 182.480469 257.265625 181.914062 255.761719 C 181.429688 254.34375 180.949219 252.925781 180.550781 251.601562 C 180.390625 251.070312 180.320312 250.453125 180.078125 249.832031 C 180.003906 249.394531 180.105469 248.957031 180.03125 248.519531 C 179.992188 246.851562 180.039062 245.277344 180.179688 243.613281 C 180.667969 241.964844 180.714844 240.390625 180.847656 238.902344 M 161.664062 215.453125 C 162.226562 217.132812 162.789062 218.816406 163.351562 220.496094 C 164.242188 222.890625 165.042969 225.367188 166.109375 227.765625 C 166.507812 229.09375 166.90625 230.417969 167.390625 231.835938 C 168.039062 233.609375 168.683594 235.378906 169.332031 237.152344 C 169.902344 238.660156 170.46875 240.167969 171.121094 241.761719 C 171.269531 242.644531 171.421875 243.351562 171.570312 244.230469 C 171.644531 244.671875 171.726562 244.9375 171.800781 245.378906 C 171.714844 245.285156 171.628906 245.195312 171.636719 245.019531 C 170.542969 243.5 169.449219 241.976562 168.179688 240.449219 C 167.167969 239.191406 166.0625 238.019531 165.050781 236.761719 C 165.050781 236.761719 164.964844 236.671875 164.964844 236.671875 C 164.964844 236.671875 164.964844 236.671875 164.878906 236.578125 C 164.625 236.308594 164.460938 235.953125 164.292969 235.773438 C 162.523438 233.355469 160.84375 231.023438 158.984375 228.691406 C 156.789062 225.996094 154.773438 223.128906 152.75 220.441406 C 150.8125 217.839844 148.875 215.238281 146.855469 212.550781 C 145.34375 210.402344 143.835938 208.078125 142.414062 205.84375 C 141.582031 204.417969 140.570312 202.984375 139.648438 201.640625 C 138.730469 200.125 137.722656 198.691406 136.804688 197.171875 C 135.054688 194.230469 133.300781 191.285156 131.550781 188.339844 C 129.800781 185.394531 128.132812 182.539062 126.558594 179.601562 C 124.894531 176.570312 123.230469 173.714844 121.75 170.515625 C 120.179688 167.402344 118.875 164.207031 117.210938 161.179688 C 116.46875 159.667969 115.550781 158.148438 114.808594 156.636719 C 114.066406 155.125 113.324219 153.613281 112.753906 152.105469 C 112.101562 150.507812 111.449219 148.910156 110.796875 147.3125 C 110.144531 145.71875 109.574219 144.210938 108.921875 142.613281 C 108.351562 141.28125 107.867188 139.863281 107.210938 138.441406 C 107.722656 138.808594 108.234375 139.351562 108.839844 139.632812 C 109.609375 140.269531 110.292969 140.8125 111.152344 141.367188 C 111.835938 141.914062 112.527344 142.285156 113.210938 142.832031 C 113.640625 143.105469 113.894531 143.375 114.324219 143.652344 C 114.667969 143.839844 115.007812 144.199219 115.355469 144.386719 C 115.953125 144.839844 116.464844 145.382812 116.972656 145.921875 C 117.566406 146.554688 118.335938 147.191406 118.929688 147.824219 C 119.523438 148.453125 120.113281 149.261719 120.707031 149.890625 C 121.210938 150.609375 121.722656 151.148438 122.226562 151.867188 C 122.816406 152.671875 123.3125 153.5625 123.902344 154.371094 C 124.65625 155.53125 125.414062 156.519531 126.257812 157.597656 C 127.78125 159.394531 129.394531 161.109375 131.1875 162.652344 C 132.382812 163.742188 133.75 164.832031 134.945312 165.921875 C 136.222656 167.097656 137.417969 168.1875 138.605469 169.449219 C 139.710938 170.621094 140.988281 171.800781 142.003906 173.058594 C 143.105469 174.230469 144.113281 175.664062 145.128906 176.921875 C 145.460938 177.457031 145.800781 177.816406 146.136719 178.351562 C 146.554688 178.980469 146.886719 179.691406 147.304688 180.316406 C 148.136719 181.742188 148.964844 183.34375 149.707031 184.859375 C 150.535156 186.460938 151.363281 188.0625 152.105469 189.574219 C 153.507812 192.507812 154.726562 195.613281 155.773438 198.710938 C 157.226562 202.785156 158.597656 206.769531 160.050781 210.847656 C 160.539062 212.085938 161.101562 213.769531 161.664062 215.453125 M 168.6875 177.371094 C 168.023438 176.121094 167.359375 174.875 166.78125 173.71875 C 166.117188 172.472656 165.539062 171.316406 164.785156 170.152344 C 164.035156 168.992188 163.371094 167.746094 162.707031 166.496094 C 162.042969 165.25 161.289062 164.089844 160.535156 162.925781 C 159.027344 160.601562 157.703125 158.109375 156.371094 155.789062 C 155.621094 154.453125 154.867188 153.292969 154.121094 151.953125 C 153.457031 150.707031 152.792969 149.460938 152.214844 148.304688 C 151.550781 147.058594 150.890625 145.808594 150.316406 144.480469 C 149.742188 143.148438 148.996094 141.808594 148.421875 140.476562 C 147.757812 139.230469 147.09375 137.984375 146.605469 136.742188 C 146.035156 135.410156 145.546875 134.167969 145.0625 132.753906 C 144.738281 131.867188 144.414062 130.980469 144.179688 130.007812 C 143.949219 129.039062 143.714844 128.066406 143.480469 127.097656 C 143.246094 126.125 143.097656 125.246094 142.863281 124.273438 C 142.714844 123.394531 142.476562 122.597656 142.417969 121.632812 C 142.433594 121.105469 142.359375 120.664062 142.375 120.140625 C 143.3125 121.132812 144.328125 122.214844 145.082031 123.375 C 145.671875 124.183594 146.171875 125.074219 146.675781 125.789062 C 147.171875 126.683594 147.671875 127.574219 148.261719 128.378906 C 148.925781 129.628906 149.59375 130.699219 150.257812 131.945312 C 151.011719 133.109375 151.847656 134.359375 152.601562 135.523438 C 153.441406 136.773438 154.285156 137.851562 155.121094 139.101562 C 155.960938 140.355469 156.714844 141.515625 157.378906 142.765625 C 158.878906 145.261719 160.027344 147.925781 161.085938 150.5 C 161.660156 151.832031 162.144531 153.25 162.710938 154.753906 C 163.199219 155.996094 163.6875 157.238281 164.175781 158.480469 C 164.171875 158.65625 164.339844 158.835938 164.335938 159.011719 C 164.421875 159.101562 164.414062 159.277344 164.5 159.367188 C 164.824219 160.253906 165.148438 161.140625 165.464844 162.199219 C 165.949219 163.617188 166.257812 165.027344 166.5625 166.4375 C 166.871094 167.851562 167.089844 169.347656 167.398438 170.757812 C 167.707031 172.167969 168.101562 173.496094 168.410156 174.90625 C 168.648438 175.703125 168.714844 176.496094 168.863281 177.375 C 168.683594 177.542969 168.6875 177.371094 168.6875 177.371094 M 183.027344 169.652344 C 183.945312 168.28125 184.863281 166.90625 185.78125 165.53125 C 186.695312 164.332031 187.613281 162.957031 188.527344 161.757812 C 189.527344 160.472656 190.441406 159.273438 191.445312 157.992188 C 192.445312 156.707031 193.363281 155.332031 194.191406 154.042969 C 195.195312 152.757812 196.113281 151.382812 197.117188 150.101562 C 198.035156 148.726562 199.035156 147.441406 199.953125 146.066406 C 200.78125 144.777344 201.785156 143.492188 202.695312 142.292969 C 203.519531 141.179688 204.339844 140.066406 205.25 139.042969 C 206.066406 138.101562 206.882812 137.164062 207.695312 136.398438 C 207.785156 136.316406 207.875 136.230469 208.054688 136.058594 C 208.957031 135.210938 209.855469 134.535156 210.757812 133.6875 C 211.75 132.753906 212.652344 131.90625 213.644531 130.972656 C 214.453125 130.207031 215.179688 129.351562 216.078125 128.679688 C 216.0625 129.203125 216.050781 129.554688 216.035156 130.078125 C 216.019531 130.605469 215.917969 131.039062 215.902344 131.566406 C 215.488281 133.65625 214.992188 135.65625 214.402344 137.742188 C 213.707031 140.4375 213.011719 143.132812 212.316406 145.828125 C 212.019531 146.957031 211.726562 147.914062 211.429688 149.042969 C 211.058594 149.734375 210.6875 150.421875 210.492188 151.117188 C 209.089844 153.96875 207.78125 156.730469 206.296875 159.492188 C 204.808594 162.25 203.070312 164.738281 201.152344 167.222656 C 200.242188 168.421875 199.152344 169.617188 197.980469 170.71875 C 196.984375 171.828125 195.992188 172.761719 194.910156 173.78125 C 194.730469 173.949219 194.546875 174.121094 194.277344 174.375 C 193.195312 175.394531 192.023438 176.5 190.855469 177.425781 C 189.6875 178.355469 188.605469 179.375 187.523438 180.394531 C 186.984375 180.902344 186.355469 181.320312 185.730469 181.742188 C 185.105469 182.160156 184.472656 182.753906 183.933594 183.265625 C 182.847656 184.28125 181.675781 185.386719 180.425781 186.226562 C 179.527344 186.898438 178.636719 187.398438 177.746094 187.894531 C 177.210938 188.230469 176.589844 188.476562 176.050781 188.808594 C 176.152344 188.375 176.078125 187.933594 176.179688 187.5 C 176.199219 186.796875 176.398438 186.101562 176.417969 185.402344 C 176.53125 184.617188 176.636719 184.007812 176.832031 183.3125 C 177.027344 182.617188 177.308594 182.011719 177.507812 181.316406 C 177.984375 180.015625 178.460938 178.71875 178.9375 177.417969 C 179.589844 176.121094 180.070312 174.820312 180.804688 173.617188 C 181.464844 172.148438 182.203125 170.941406 183.027344 169.652344 " fill-opacity="1" fill-rule="nonzero"/></g></g></g><g mask="url(#f47918005b)"><g transform="matrix(1, 0, 0, 1, 84, 118)"><g clip-path="url(#d267077f97)"><g clip-path="url(#12754cc890)"><path fill="#bc79ff" d="M 41.945312 148.398438 L 41.417969 148.398438 L 41.769531 148.398438 C 41.945312 148.398438 42.125 148.398438 42.476562 148.574219 C 42.300781 148.398438 42.125 148.398438 41.945312 148.398438 M 96.777344 1.949219 C 97.660156 1.949219 98.722656 2.125 99.785156 2.125 L 99.960938 2.125 C 101.199219 2.300781 102.261719 2.480469 103.320312 2.832031 C 105.621094 3.539062 107.742188 4.601562 109.6875 5.839844 C 110.042969 6.195312 110.574219 6.371094 110.925781 6.722656 L 111.28125 7.078125 C 111.632812 7.429688 111.988281 7.785156 112.34375 7.960938 C 112.695312 8.316406 113.050781 8.667969 113.402344 9.199219 C 113.933594 9.730469 114.289062 10.261719 114.640625 10.792969 L 114.640625 10.96875 C 115.347656 11.851562 116.054688 12.738281 116.585938 13.445312 L 116.941406 13.800781 C 117.472656 14.507812 118 15.214844 118.53125 16.097656 C 119.0625 17.160156 119.59375 18.042969 119.949219 18.929688 C 120.300781 19.8125 120.832031 20.695312 121.183594 21.757812 C 121.539062 22.640625 122.070312 23.527344 122.421875 24.410156 L 122.601562 24.765625 C 122.953125 25.648438 123.308594 26.535156 123.839844 27.417969 C 124.546875 29.011719 125.253906 30.777344 125.785156 32.722656 C 126.316406 34.140625 126.84375 35.90625 127.554688 37.851562 C 127.90625 38.738281 128.4375 39.800781 128.96875 40.859375 C 129.5 42.097656 130.027344 43.335938 130.382812 44.222656 L 130.382812 44.398438 C 130.738281 45.457031 131.265625 46.519531 131.621094 47.40625 L 131.972656 48.289062 C 132.328125 49.171875 132.683594 49.703125 133.035156 50.234375 C 133.390625 50.058594 133.921875 49.878906 134.449219 49.878906 C 135.335938 49.527344 136.21875 49.351562 137.105469 48.996094 C 138.519531 48.464844 140.109375 47.933594 141.878906 47.226562 C 143.472656 46.519531 145.238281 45.8125 147.183594 44.75 C 147.714844 44.574219 148.246094 44.222656 148.601562 44.042969 L 148.777344 44.042969 C 149.839844 43.511719 151.253906 42.804688 152.667969 42.273438 C 154.789062 41.390625 157.089844 40.328125 159.390625 39.445312 C 161.6875 38.5625 163.632812 37.851562 165.402344 37.5 C 168.054688 36.792969 170.53125 36.4375 172.832031 36.4375 C 173.894531 36.4375 174.953125 36.617188 176.015625 36.617188 L 176.191406 36.617188 C 176.898438 36.792969 177.605469 36.792969 178.316406 36.96875 C 178.84375 37.144531 179.375 37.144531 180.082031 37.324219 C 181.851562 37.675781 183.621094 38.382812 185.390625 39.269531 C 186.804688 39.976562 188.398438 41.039062 190.164062 42.453125 C 191.050781 43.160156 191.757812 43.867188 192.464844 44.398438 C 194.234375 45.988281 195.648438 47.582031 197.0625 49.171875 C 198.65625 50.941406 199.894531 52.886719 200.777344 54.832031 C 201.660156 56.601562 202.546875 58.722656 203.609375 61.199219 C 203.960938 62.085938 204.316406 63.144531 204.667969 64.207031 C 204.84375 64.5625 204.84375 64.738281 205.023438 65.089844 L 205.199219 65.621094 C 205.375 66.152344 205.554688 66.683594 205.554688 67.039062 L 205.554688 67.746094 C 205.554688 68.097656 205.730469 68.453125 205.730469 68.628906 L 205.730469 69.335938 C 205.730469 69.867188 205.90625 70.574219 205.90625 71.28125 C 206.082031 72.695312 205.90625 74.289062 205.554688 76.058594 C 205.554688 76.589844 205.375 77.117188 205.023438 77.828125 C 204.136719 78.535156 203.960938 79.242188 203.609375 79.949219 C 203.078125 80.832031 202.371094 81.894531 201.660156 82.777344 C 201.308594 83.308594 200.777344 84.015625 200.246094 84.546875 L 200.246094 84.722656 L 199.714844 85.433594 C 198.476562 87.023438 197.0625 88.96875 195.472656 90.738281 C 192.289062 94.097656 188.75 96.75 185.390625 99.40625 C 184.503906 99.933594 183.796875 100.464844 183.089844 100.996094 C 182.027344 101.703125 181.320312 102.058594 180.613281 102.410156 L 180.261719 102.589844 C 179.90625 102.765625 179.375 102.941406 179.023438 103.117188 L 178.667969 103.296875 L 178.492188 103.296875 C 178.136719 103.472656 177.785156 103.472656 177.605469 103.648438 L 177.429688 103.648438 C 176.546875 103.828125 175.839844 104.179688 174.953125 104.355469 C 172.65625 104.886719 171.0625 105.417969 169.292969 105.59375 C 168.765625 105.773438 168.234375 105.773438 167.703125 105.949219 L 167.527344 105.949219 L 166.640625 106.125 C 166.816406 106.125 166.816406 106.300781 166.996094 106.300781 C 167.347656 106.65625 167.703125 107.011719 167.878906 107.1875 C 168.234375 107.539062 168.410156 107.894531 168.585938 108.425781 C 169.292969 109.132812 169.648438 109.839844 170 110.546875 C 170.355469 111.253906 171.0625 112.316406 171.417969 113.378906 C 171.769531 114.261719 172.125 115.324219 172.476562 116.5625 C 173.714844 120.804688 174.246094 125.050781 173.894531 129.117188 C 173.714844 131.417969 173.363281 133.71875 173.007812 136.015625 L 173.007812 136.195312 C 173.007812 136.722656 172.832031 137.253906 172.65625 137.785156 C 172.476562 138.671875 172.300781 139.378906 172.125 140.261719 C 171.949219 140.792969 171.769531 141.855469 171.417969 142.738281 C 171.0625 143.800781 170.53125 144.859375 170 145.746094 C 169.648438 146.453125 168.941406 147.335938 168.585938 147.867188 C 168.054688 148.574219 167.347656 149.460938 166.640625 150.34375 C 165.582031 151.582031 164.34375 152.644531 162.574219 153.882812 C 159.035156 156.710938 155.851562 158.480469 152.667969 159.71875 C 151.785156 160.070312 151.078125 160.25 150.015625 160.425781 C 149.132812 160.601562 148.246094 160.601562 147.363281 160.777344 L 146.832031 160.777344 C 145.59375 160.957031 144.355469 160.957031 143.117188 161.132812 L 141.703125 161.488281 C 140.816406 161.488281 139.933594 161.664062 139.050781 161.664062 C 138.871094 161.664062 138.519531 161.664062 138.34375 161.664062 C 137.8125 161.664062 137.28125 161.664062 136.394531 161.664062 C 134.273438 161.488281 132.328125 161.132812 130.382812 160.601562 C 128.96875 160.25 127.199219 159.71875 125.605469 159.1875 L 124.015625 158.480469 L 123.660156 158.304688 L 123.484375 158.304688 C 122.601562 157.949219 121.539062 157.59375 120.65625 157.417969 C 120.125 157.242188 119.769531 157.066406 119.417969 156.886719 L 119.238281 156.886719 L 119.0625 156.710938 L 118.886719 156.710938 C 118.53125 156.535156 118.179688 156.355469 117.824219 156.179688 C 116.941406 155.648438 116.054688 155.121094 114.996094 154.234375 C 113.757812 153.171875 112.34375 151.933594 111.105469 150.519531 C 110.75 150.167969 110.21875 149.636719 109.867188 149.105469 C 109.6875 148.929688 109.511719 148.75 109.511719 148.574219 C 108.980469 147.867188 108.273438 146.984375 107.742188 145.921875 L 107.035156 144.859375 C 106.328125 143.621094 105.621094 142.5625 104.914062 141.5 C 104.382812 140.4375 103.851562 139.554688 103.5 138.847656 C 102.96875 137.785156 102.613281 136.722656 102.261719 135.664062 C 101.90625 134.777344 101.730469 134.070312 101.550781 133.363281 C 101.550781 133.011719 101.375 132.832031 101.375 132.304688 C 101.199219 132.480469 101.023438 132.65625 100.84375 132.832031 C 99.960938 133.71875 99.078125 134.601562 98.191406 135.308594 L 98.015625 135.488281 C 96.601562 136.902344 95.007812 138.316406 93.417969 139.554688 C 92 140.792969 90.410156 141.855469 88.816406 142.738281 C 87.226562 143.621094 85.632812 144.683594 83.867188 145.390625 C 82.097656 146.097656 80.328125 146.804688 78.734375 147.335938 C 78.558594 147.335938 78.558594 147.515625 78.382812 147.515625 C 75.023438 149.460938 71.308594 151.050781 67.417969 152.289062 C 63.523438 153.527344 59.457031 154.058594 55.742188 154.410156 C 53.621094 154.589844 51.320312 154.765625 49.375 154.765625 C 47.785156 154.765625 46.367188 154.765625 44.777344 154.589844 C 40.886719 154.234375 36.816406 153.351562 33.101562 151.933594 C 31.335938 151.226562 29.390625 150.34375 27.621094 149.28125 C 26.734375 148.75 25.851562 148.222656 25.320312 147.691406 C 24.4375 146.984375 23.375 146.277344 22.492188 145.390625 C 21.785156 144.683594 21.078125 143.800781 20.546875 142.914062 C 20.191406 142.207031 19.660156 141.5 19.308594 140.617188 L 19.128906 140.261719 C 18.953125 139.730469 18.601562 139.199219 18.601562 138.671875 C 18.421875 137.960938 18.421875 137.253906 18.246094 136.546875 C 18.070312 135.664062 18.070312 134.777344 18.070312 134.070312 L 18.070312 133.894531 C 18.070312 131.949219 18.246094 130.179688 18.246094 128.410156 L 18.246094 127.882812 C 18.421875 126.113281 18.601562 124.34375 18.953125 122.75 C 19.484375 120.804688 20.546875 118.859375 21.605469 117.269531 C 22.492188 115.675781 23.730469 114.085938 25.144531 112.492188 C 25.496094 112.140625 26.027344 111.609375 26.734375 111.078125 L 26.558594 111.078125 C 26.207031 111.078125 25.851562 110.902344 25.496094 110.902344 C 24.96875 110.722656 24.4375 110.546875 24.082031 110.546875 C 23.90625 110.546875 23.550781 110.371094 23.375 110.195312 L 23.023438 110.195312 L 22.667969 110.015625 C 21.960938 109.664062 21.253906 109.488281 20.546875 109.308594 L 20.367188 109.308594 L 19.839844 109.132812 C 18.953125 108.777344 17.890625 108.425781 17.007812 108.070312 C 15.769531 107.539062 14.53125 107.011719 13.648438 106.480469 C 12.761719 105.949219 11.878906 105.417969 10.816406 104.710938 C 10.285156 104.355469 9.757812 104.003906 9.226562 103.472656 C 8.871094 103.117188 8.339844 102.765625 7.988281 102.410156 C 6.925781 101.171875 5.867188 99.933594 5.15625 98.519531 C 4.804688 97.8125 4.449219 97.105469 4.097656 96.574219 C 3.742188 95.867188 3.390625 94.984375 3.035156 94.097656 C 2.503906 93.039062 2.152344 91.976562 1.972656 91.089844 C 1.621094 90.207031 1.445312 89.324219 1.265625 88.261719 C 1.089844 86.847656 0.914062 85.609375 0.914062 84.371094 C 0.914062 83.308594 0.914062 82.25 1.265625 80.832031 C 1.445312 80.300781 1.445312 79.773438 1.796875 79.066406 C 2.328125 77.472656 2.859375 76.058594 3.390625 74.644531 L 3.566406 74.464844 C 3.742188 73.933594 3.917969 73.582031 4.097656 73.050781 L 4.628906 71.636719 C 5.15625 70.222656 5.867188 68.453125 6.574219 66.683594 C 6.925781 65.800781 7.457031 64.738281 7.988281 63.855469 C 8.519531 62.792969 9.226562 61.90625 9.757812 61.023438 C 11.171875 58.902344 12.410156 57.132812 13.824219 55.539062 C 14.53125 54.65625 15.417969 53.773438 15.945312 53.0625 C 16.65625 52.355469 17.539062 51.648438 18.421875 50.941406 C 19.484375 50.234375 20.367188 49.527344 21.429688 48.820312 C 22.136719 48.289062 23.023438 47.933594 24.082031 47.226562 C 25.320312 46.519531 26.734375 45.988281 27.621094 45.636719 C 28.328125 45.28125 29.390625 44.929688 30.273438 44.574219 C 31.335938 44.222656 32.394531 44.042969 33.457031 43.691406 C 35.226562 43.335938 36.289062 43.160156 37.347656 43.160156 L 38.054688 43.160156 C 38.761719 43.160156 39.648438 42.984375 40.53125 42.984375 L 40.707031 42.984375 C 41.945312 42.984375 42.832031 42.984375 43.894531 43.160156 C 46.015625 43.335938 48.3125 43.691406 50.789062 44.222656 C 51.851562 44.398438 53.089844 44.75 54.152344 45.105469 C 55.210938 45.457031 56.449219 45.8125 58.042969 46.519531 C 59.105469 47.050781 60.164062 47.582031 61.226562 47.933594 L 61.402344 47.933594 C 62.289062 48.289062 63.171875 48.820312 64.054688 49.171875 C 64.941406 49.527344 65.824219 49.878906 66.710938 50.058594 L 66.710938 49.351562 C 66.710938 48.644531 66.886719 47.933594 66.886719 47.050781 C 66.886719 45.8125 67.0625 44.75 67.238281 43.511719 C 67.417969 42.453125 67.59375 41.390625 67.769531 40.328125 C 67.945312 39.445312 68.125 38.5625 68.300781 37.851562 L 68.476562 37.324219 C 69.007812 35.378906 69.539062 33.433594 70.246094 30.957031 C 70.777344 28.832031 71.484375 26.886719 72.191406 24.941406 L 72.722656 23.351562 L 72.722656 23.171875 C 73.253906 21.757812 73.605469 20.34375 74.136719 19.105469 C 74.667969 17.511719 75.375 15.921875 76.261719 14.152344 C 76.96875 12.738281 77.851562 11.324219 78.914062 9.90625 L 79.089844 9.730469 C 80.152344 8.316406 81.210938 7.253906 82.628906 6.195312 C 83.335938 5.664062 84.042969 5.132812 84.574219 4.777344 C 85.105469 4.425781 85.632812 4.246094 86.339844 3.894531 C 87.226562 3.539062 88.289062 3.1875 89.347656 2.832031 C 90.234375 2.480469 91.292969 2.480469 92 2.300781 L 92.179688 2.300781 C 93.238281 2.125 94.125 2.125 95.183594 2.125 C 96.070312 1.949219 96.421875 1.949219 96.777344 1.949219 " fill-opacity="1" fill-rule="nonzero"/></g></g></g></g><g fill="#73187f" fill-opacity="1"><g transform="translate(148.470429, 94.730215)"><g><path d="M 0.078125 -7.09375 C -0.128906 -7.9375 -0.0625 -8.675781 0.28125 -9.3125 C 0.625 -9.945312 1.097656 -10.34375 1.703125 -10.5 C 2.191406 -10.613281 2.691406 -10.546875 3.203125 -10.296875 C 2.773438 -10.035156 2.507812 -9.691406 2.40625 -9.265625 C 2.3125 -8.835938 2.328125 -8.382812 2.453125 -7.90625 C 2.660156 -7.0625 3.15625 -6.300781 3.9375 -5.625 C 4.71875 -4.957031 5.679688 -4.414062 6.828125 -4 C 7.984375 -3.582031 9.242188 -3.335938 10.609375 -3.265625 C 11.984375 -3.191406 13.363281 -3.328125 14.75 -3.671875 C 16.113281 -4.003906 17.375 -4.492188 18.53125 -5.140625 C 19.6875 -5.796875 20.671875 -6.570312 21.484375 -7.46875 C 22.296875 -8.375 22.859375 -9.382812 23.171875 -10.5 C 23.492188 -11.613281 23.488281 -12.828125 23.15625 -14.140625 C 22.832031 -15.441406 22.304688 -16.457031 21.578125 -17.1875 C 20.847656 -17.914062 19.972656 -18.425781 18.953125 -18.71875 C 17.929688 -19.019531 16.8125 -19.175781 15.59375 -19.1875 C 14.375 -19.207031 13.101562 -19.160156 11.78125 -19.046875 C 10.457031 -18.929688 9.140625 -18.820312 7.828125 -18.71875 C 6.523438 -18.613281 5.253906 -18.585938 4.015625 -18.640625 C 2.773438 -18.691406 1.640625 -18.890625 0.609375 -19.234375 C -0.421875 -19.578125 -1.300781 -20.140625 -2.03125 -20.921875 C -2.769531 -21.710938 -3.3125 -22.800781 -3.65625 -24.1875 C -4.039062 -25.71875 -4.003906 -27.113281 -3.546875 -28.375 C -3.085938 -29.644531 -2.332031 -30.765625 -1.28125 -31.734375 C -0.226562 -32.710938 1 -33.546875 2.40625 -34.234375 C 3.8125 -34.921875 5.25 -35.445312 6.71875 -35.8125 C 7.988281 -36.132812 9.320312 -36.359375 10.71875 -36.484375 C 12.113281 -36.617188 13.453125 -36.613281 14.734375 -36.46875 C 16.023438 -36.320312 17.117188 -35.992188 18.015625 -35.484375 C 18.910156 -34.972656 19.484375 -34.210938 19.734375 -33.203125 C 19.847656 -32.710938 19.859375 -32.257812 19.765625 -31.84375 C 19.671875 -31.4375 19.410156 -31.09375 18.984375 -30.8125 C 18.328125 -32.207031 17.332031 -33.285156 16 -34.046875 C 14.675781 -34.804688 13.171875 -35.269531 11.484375 -35.4375 C 9.796875 -35.601562 8.082031 -35.472656 6.34375 -35.046875 C 3.351562 -34.296875 1.144531 -33.039062 -0.28125 -31.28125 C -1.707031 -29.53125 -2.109375 -27.410156 -1.484375 -24.921875 C -1.210938 -23.828125 -0.675781 -23.03125 0.125 -22.53125 C 0.9375 -22.039062 1.9375 -21.738281 3.125 -21.625 C 4.3125 -21.507812 5.617188 -21.492188 7.046875 -21.578125 C 8.472656 -21.660156 9.941406 -21.757812 11.453125 -21.875 C 12.960938 -22 14.453125 -22.035156 15.921875 -21.984375 C 17.390625 -21.929688 18.75 -21.710938 20 -21.328125 C 21.257812 -20.941406 22.34375 -20.296875 23.25 -19.390625 C 24.15625 -18.484375 24.8125 -17.210938 25.21875 -15.578125 C 25.625 -13.984375 25.613281 -12.503906 25.1875 -11.140625 C 24.757812 -9.773438 24.035156 -8.554688 23.015625 -7.484375 C 22.003906 -6.410156 20.796875 -5.5 19.390625 -4.75 C 17.984375 -4 16.488281 -3.425781 14.90625 -3.03125 C 12.34375 -2.394531 10.003906 -2.140625 7.890625 -2.265625 C 5.773438 -2.390625 4.03125 -2.863281 2.65625 -3.6875 C 1.289062 -4.519531 0.429688 -5.65625 0.078125 -7.09375 Z M 0.078125 -7.09375 "/></g></g></g><g fill="#73187f" fill-opacity="1"><g transform="translate(175.101648, 88.099173)"><g><path d="M 12.640625 0.671875 C 10.453125 0.671875 8.53125 0.175781 6.875 -0.8125 C 5.21875 -1.8125 3.929688 -3.203125 3.015625 -4.984375 C 2.097656 -6.773438 1.640625 -8.859375 1.640625 -11.234375 C 1.648438 -13.617188 2.113281 -15.703125 3.03125 -17.484375 C 3.957031 -19.273438 5.25 -20.660156 6.90625 -21.640625 C 8.5625 -22.617188 10.484375 -23.109375 12.671875 -23.109375 C 14.878906 -23.097656 16.804688 -22.597656 18.453125 -21.609375 C 20.097656 -20.628906 21.378906 -19.242188 22.296875 -17.453125 C 23.222656 -15.671875 23.679688 -13.585938 23.671875 -11.203125 C 23.671875 -8.828125 23.207031 -6.742188 22.28125 -4.953125 C 21.351562 -3.171875 20.066406 -1.785156 18.421875 -0.796875 C 16.773438 0.191406 14.847656 0.679688 12.640625 0.671875 Z M 4.296875 -11.234375 C 4.296875 -8.984375 4.640625 -7.007812 5.328125 -5.3125 C 6.015625 -3.625 6.988281 -2.3125 8.25 -1.375 C 9.507812 -0.445312 10.972656 0.015625 12.640625 0.015625 C 14.304688 0.0234375 15.765625 -0.429688 17.015625 -1.359375 C 18.273438 -2.296875 19.253906 -3.609375 19.953125 -5.296875 C 20.648438 -6.984375 21 -8.953125 21 -11.203125 C 21 -13.460938 20.65625 -15.4375 19.96875 -17.125 C 19.28125 -18.8125 18.304688 -20.117188 17.046875 -21.046875 C 15.796875 -21.984375 14.335938 -22.457031 12.671875 -22.46875 C 11.003906 -22.46875 9.539062 -22 8.28125 -21.0625 C 7.019531 -20.132812 6.039062 -18.828125 5.34375 -17.140625 C 4.644531 -15.460938 4.296875 -13.492188 4.296875 -11.234375 Z M 4.296875 -11.234375 "/></g></g></g><g fill="#73187f" fill-opacity="1"><g transform="translate(198.944678, 88.693643)"><g><path d="M 4.703125 0.6875 L 2.125 0.3125 L 5.390625 -21.9375 L 7.96875 -21.5625 Z M 4.4375 -27.28125 C 4.332031 -27.34375 4.285156 -27.398438 4.296875 -27.453125 C 4.304688 -27.515625 4.363281 -27.546875 4.46875 -27.546875 C 5.09375 -27.660156 5.585938 -27.789062 5.953125 -27.9375 C 6.328125 -28.09375 6.648438 -28.347656 6.921875 -28.703125 C 7.191406 -29.054688 7.476562 -29.554688 7.78125 -30.203125 C 7.832031 -30.316406 7.898438 -30.363281 7.984375 -30.34375 C 8.078125 -30.332031 8.128906 -30.269531 8.140625 -30.15625 C 8.222656 -29.445312 8.34375 -28.882812 8.5 -28.46875 C 8.65625 -28.050781 8.890625 -27.707031 9.203125 -27.4375 C 9.515625 -27.175781 9.960938 -26.914062 10.546875 -26.65625 C 10.640625 -26.625 10.679688 -26.578125 10.671875 -26.515625 C 10.660156 -26.460938 10.609375 -26.421875 10.515625 -26.390625 C 9.898438 -26.285156 9.390625 -26.160156 8.984375 -26.015625 C 8.578125 -25.867188 8.238281 -25.625 7.96875 -25.28125 C 7.695312 -24.9375 7.4375 -24.410156 7.1875 -23.703125 C 7.15625 -23.617188 7.085938 -23.582031 6.984375 -23.59375 C 6.890625 -23.613281 6.835938 -23.664062 6.828125 -23.75 C 6.742188 -24.507812 6.617188 -25.09375 6.453125 -25.5 C 6.296875 -25.90625 6.0625 -26.234375 5.75 -26.484375 C 5.4375 -26.742188 5 -27.007812 4.4375 -27.28125 Z M 4.4375 -27.28125 "/></g></g></g><g fill="#73187f" fill-opacity="1"><g transform="translate(204.728895, 88.948991)"><g><path d="M 12.140625 4.125 C 10.054688 3.53125 8.335938 2.535156 6.984375 1.140625 C 5.640625 -0.253906 4.75 -1.941406 4.3125 -3.921875 C 3.875 -5.910156 3.984375 -8.082031 4.640625 -10.4375 C 5.085938 -12 5.804688 -13.375 6.796875 -14.5625 C 7.796875 -15.757812 8.96875 -16.734375 10.3125 -17.484375 C 11.664062 -18.234375 13.117188 -18.707031 14.671875 -18.90625 C 16.222656 -19.113281 17.789062 -18.992188 19.375 -18.546875 C 20.457031 -18.234375 21.472656 -17.765625 22.421875 -17.140625 C 23.378906 -16.523438 24.101562 -15.78125 24.59375 -14.90625 C 25.09375 -14.039062 25.191406 -13.078125 24.890625 -12.015625 C 24.554688 -10.867188 23.898438 -9.910156 22.921875 -9.140625 C 21.941406 -8.378906 20.738281 -7.8125 19.3125 -7.4375 C 17.882812 -7.0625 16.347656 -6.890625 14.703125 -6.921875 C 13.066406 -6.960938 11.414062 -7.222656 9.75 -7.703125 C 9.539062 -7.753906 9.347656 -7.804688 9.171875 -7.859375 C 8.992188 -7.910156 8.820312 -7.960938 8.65625 -8.015625 C 8.1875 -8.171875 7.785156 -8.144531 7.453125 -7.9375 C 7.128906 -7.738281 6.945312 -7.410156 6.90625 -6.953125 C 6.695312 -4.335938 7.125 -2.117188 8.1875 -0.296875 C 9.25 1.523438 10.894531 2.753906 13.125 3.390625 C 14.851562 3.878906 16.398438 3.847656 17.765625 3.296875 C 19.140625 2.753906 20.253906 1.972656 21.109375 0.953125 L 21.65625 1.515625 C 20.519531 2.816406 19.175781 3.722656 17.625 4.234375 C 16.070312 4.753906 14.242188 4.71875 12.140625 4.125 Z M 7.609375 -10.609375 C 7.484375 -10.253906 7.484375 -9.894531 7.609375 -9.53125 C 7.742188 -9.175781 7.972656 -8.925781 8.296875 -8.78125 C 8.523438 -8.695312 8.765625 -8.601562 9.015625 -8.5 C 9.265625 -8.394531 9.546875 -8.296875 9.859375 -8.203125 C 10.671875 -7.972656 11.582031 -7.832031 12.59375 -7.78125 C 13.601562 -7.738281 14.617188 -7.796875 15.640625 -7.953125 C 16.671875 -8.109375 17.644531 -8.375 18.5625 -8.75 C 19.476562 -9.132812 20.265625 -9.640625 20.921875 -10.265625 C 21.585938 -10.890625 22.046875 -11.640625 22.296875 -12.515625 C 22.546875 -13.410156 22.550781 -14.226562 22.3125 -14.96875 C 22.070312 -15.71875 21.664062 -16.347656 21.09375 -16.859375 C 20.519531 -17.367188 19.847656 -17.734375 19.078125 -17.953125 C 17.722656 -18.335938 16.4375 -18.40625 15.21875 -18.15625 C 14 -17.90625 12.882812 -17.421875 11.875 -16.703125 C 10.875 -15.984375 10.007812 -15.097656 9.28125 -14.046875 C 8.5625 -12.992188 8.003906 -11.847656 7.609375 -10.609375 Z M 7.609375 -10.609375 "/></g></g></g><g fill="#73187f" fill-opacity="1"><g transform="translate(160.884458, 311.63078)"><g><path d="M 3.859375 0.1875 C 3.273438 0.1875 2.769531 0.109375 2.34375 -0.046875 C 1.914062 -0.203125 1.5625 -0.40625 1.28125 -0.65625 C 1.007812 -0.914062 0.804688 -1.207031 0.671875 -1.53125 C 0.535156 -1.851562 0.46875 -2.175781 0.46875 -2.5 L 1.59375 -2.5 C 1.59375 -2.195312 1.679688 -1.914062 1.859375 -1.65625 C 2.046875 -1.394531 2.304688 -1.179688 2.640625 -1.015625 C 2.984375 -0.859375 3.390625 -0.78125 3.859375 -0.78125 C 4.597656 -0.78125 5.160156 -0.914062 5.546875 -1.1875 C 5.941406 -1.457031 6.140625 -1.859375 6.140625 -2.390625 C 6.140625 -2.722656 6.039062 -2.992188 5.84375 -3.203125 C 5.644531 -3.410156 5.375 -3.570312 5.03125 -3.6875 C 4.695312 -3.800781 4.316406 -3.894531 3.890625 -3.96875 C 3.597656 -4.007812 3.300781 -4.066406 3 -4.140625 C 2.707031 -4.210938 2.421875 -4.304688 2.140625 -4.421875 C 1.867188 -4.546875 1.625 -4.695312 1.40625 -4.875 C 1.1875 -5.050781 1.015625 -5.265625 0.890625 -5.515625 C 0.765625 -5.773438 0.703125 -6.078125 0.703125 -6.421875 C 0.703125 -6.742188 0.757812 -7.050781 0.875 -7.34375 C 0.988281 -7.632812 1.171875 -7.890625 1.421875 -8.109375 C 1.671875 -8.328125 1.992188 -8.5 2.390625 -8.625 C 2.785156 -8.757812 3.265625 -8.828125 3.828125 -8.828125 C 4.503906 -8.828125 5.070312 -8.71875 5.53125 -8.5 C 6 -8.289062 6.347656 -8.003906 6.578125 -7.640625 C 6.816406 -7.273438 6.9375 -6.847656 6.9375 -6.359375 L 5.8125 -6.359375 C 5.8125 -6.648438 5.734375 -6.90625 5.578125 -7.125 C 5.421875 -7.34375 5.195312 -7.515625 4.90625 -7.640625 C 4.613281 -7.765625 4.25 -7.828125 3.8125 -7.828125 C 3.425781 -7.828125 3.101562 -7.785156 2.84375 -7.703125 C 2.582031 -7.628906 2.378906 -7.523438 2.234375 -7.390625 C 2.085938 -7.253906 1.984375 -7.101562 1.921875 -6.9375 C 1.859375 -6.769531 1.828125 -6.597656 1.828125 -6.421875 C 1.828125 -6.117188 1.921875 -5.867188 2.109375 -5.671875 C 2.296875 -5.472656 2.566406 -5.3125 2.921875 -5.1875 C 3.285156 -5.070312 3.722656 -4.976562 4.234375 -4.90625 C 4.523438 -4.863281 4.816406 -4.800781 5.109375 -4.71875 C 5.398438 -4.644531 5.675781 -4.546875 5.9375 -4.421875 C 6.195312 -4.304688 6.425781 -4.15625 6.625 -3.96875 C 6.832031 -3.789062 6.992188 -3.570312 7.109375 -3.3125 C 7.222656 -3.050781 7.28125 -2.742188 7.28125 -2.390625 C 7.28125 -1.847656 7.140625 -1.382812 6.859375 -1 C 6.585938 -0.613281 6.195312 -0.316406 5.6875 -0.109375 C 5.175781 0.0859375 4.566406 0.1875 3.859375 0.1875 Z M 3.859375 0.1875 "/></g></g></g><g fill="#73187f" fill-opacity="1"><g transform="translate(168.607239, 311.63078)"><g><path d="M 4.171875 0 L 3.046875 0 L 3.046875 -7.625 L 0.3125 -7.625 L 0.3125 -8.640625 L 6.90625 -8.640625 L 6.90625 -7.625 L 4.171875 -7.625 Z M 4.171875 0 "/></g></g></g><g fill="#73187f" fill-opacity="1"><g transform="translate(175.822361, 311.63078)"><g><path d="M 4.734375 0 L 3.625 0 L 3.625 -3.3125 L 0.125 -8.640625 L 1.453125 -8.640625 L 4.171875 -4.3125 L 4.1875 -4.3125 L 6.890625 -8.640625 L 8.234375 -8.640625 L 4.734375 -3.3125 Z M 4.734375 0 "/></g></g></g><g fill="#73187f" fill-opacity="1"><g transform="translate(184.179717, 311.63078)"><g><path d="M 6.5 0 L 1.171875 0 L 1.171875 -8.640625 L 2.296875 -8.640625 L 2.296875 -1.015625 L 6.5 -1.015625 Z M 6.5 0 "/></g></g></g><g fill="#73187f" fill-opacity="1"><g transform="translate(190.925254, 311.63078)"><g><path d="M 2.296875 0 L 1.171875 0 L 1.171875 -8.640625 L 2.296875 -8.640625 Z M 2.296875 0 "/></g></g></g><g fill="#73187f" fill-opacity="1"><g transform="translate(194.396384, 311.63078)"><g><path d="M 7.453125 -1.859375 L 7.453125 -8.640625 L 8.5625 -8.640625 L 8.5625 0 L 7.609375 0 L 2.296875 -6.75 L 2.296875 0 L 1.171875 0 L 1.171875 -8.640625 L 2.125 -8.640625 L 7.4375 -1.859375 Z M 7.453125 -1.859375 "/></g></g></g><g fill="#73187f" fill-opacity="1"><g transform="translate(204.130762, 311.63078)"><g><path d="M 5.046875 0.171875 C 4.546875 0.171875 4.066406 0.0976562 3.609375 -0.046875 C 3.160156 -0.203125 2.742188 -0.414062 2.359375 -0.6875 C 1.984375 -0.96875 1.65625 -1.296875 1.375 -1.671875 C 1.101562 -2.046875 0.890625 -2.457031 0.734375 -2.90625 C 0.585938 -3.351562 0.515625 -3.828125 0.515625 -4.328125 C 0.515625 -4.828125 0.585938 -5.300781 0.734375 -5.75 C 0.890625 -6.207031 1.101562 -6.617188 1.375 -6.984375 C 1.65625 -7.359375 1.984375 -7.679688 2.359375 -7.953125 C 2.742188 -8.234375 3.160156 -8.445312 3.609375 -8.59375 C 4.066406 -8.75 4.546875 -8.828125 5.046875 -8.828125 C 5.503906 -8.828125 5.953125 -8.757812 6.390625 -8.625 C 6.835938 -8.5 7.25 -8.3125 7.625 -8.0625 C 8 -7.8125 8.320312 -7.503906 8.59375 -7.140625 C 8.863281 -6.785156 9.054688 -6.375 9.171875 -5.90625 L 8.03125 -5.90625 C 7.863281 -6.300781 7.632812 -6.640625 7.34375 -6.921875 C 7.050781 -7.203125 6.707031 -7.414062 6.3125 -7.5625 C 5.914062 -7.707031 5.488281 -7.78125 5.03125 -7.78125 C 4.5625 -7.78125 4.117188 -7.695312 3.703125 -7.53125 C 3.296875 -7.363281 2.9375 -7.125 2.625 -6.8125 C 2.320312 -6.5 2.082031 -6.128906 1.90625 -5.703125 C 1.726562 -5.285156 1.640625 -4.828125 1.640625 -4.328125 C 1.640625 -3.816406 1.726562 -3.347656 1.90625 -2.921875 C 2.082031 -2.503906 2.320312 -2.140625 2.625 -1.828125 C 2.9375 -1.523438 3.296875 -1.289062 3.703125 -1.125 C 4.117188 -0.957031 4.5625 -0.875 5.03125 -0.875 C 5.519531 -0.875 5.953125 -0.941406 6.328125 -1.078125 C 6.703125 -1.210938 7.023438 -1.398438 7.296875 -1.640625 C 7.566406 -1.890625 7.78125 -2.175781 7.9375 -2.5 C 8.101562 -2.820312 8.21875 -3.164062 8.28125 -3.53125 L 4.984375 -3.53125 L 4.984375 -4.546875 L 9.453125 -4.546875 C 9.453125 -3.890625 9.351562 -3.273438 9.15625 -2.703125 C 8.96875 -2.140625 8.6875 -1.640625 8.3125 -1.203125 C 7.9375 -0.773438 7.472656 -0.4375 6.921875 -0.1875 C 6.378906 0.0507812 5.753906 0.171875 5.046875 0.171875 Z M 5.046875 0.171875 "/></g></g></g></svg>